<svg xmlns="http://www.w3.org/2000/svg" width="373.102" height="425.773" viewBox="0 0 373.102 425.773">
  <g id="MAMIE" transform="translate(0)">
    <path id="Tracé_341" data-name="Tracé 341" d="M619.674,1189.328a17.563,17.563,0,0,0,7.4-16.06,19.184,19.184,0,0,0-13.559-16.382l-.044-.013-.044-.013c-.3-.086-.614-.171-.943-.259l-.43-.118-.05-.013-.05-.013a10.274,10.274,0,0,1-4.225-1.805c-2.086-1.667-4.122-4.975-5.888-9.565-.055-.145-.112-.287-.169-.43,3.8-3.457,6.553-7.268,7.8-10.979a15.473,15.473,0,0,0-.888-12.4l-.013-.024-.013-.022a19.881,19.881,0,0,0-4.028-5.122c.013-.184.033-.388.055-.61a19.816,19.816,0,0,0-5.853-16.782,22.763,22.763,0,0,0-11.631-5.71c-11.914-34.658-29.665-56.927-42.922-69.779a138.819,138.819,0,0,0-11.719-10.159,54.57,54.57,0,0,0,14.917-14.75c7.489-10.832,11.037-23.446,9.99-35.518-1.145-13.221-7.117-21.29-12.746-26.037-2.284-20.257-13.572-33.823-20.412-40.329-.259-8.941-2.073-25.734-11.041-41.472a68.748,68.748,0,0,0-26.923-26.625c-9.49-5.212-20.619-8.509-33.147-9.826a19.035,19.035,0,0,0-24.216-.162c-22.63,2.027-40.533,10.33-53.281,24.732-16.347,18.48-19.2,41.937-19.515,53.656A65.955,65.955,0,0,0,336,936.782a34.774,34.774,0,0,0-5.418,5.783,39.049,39.049,0,0,0-7.323,20.228c-1.051,12.076,2.5,24.695,10,35.53a54.309,54.309,0,0,0,15.507,15.117,139.617,139.617,0,0,0-11.216,9.775c-13.265,12.853-31.026,35.128-42.948,69.812a22.707,22.707,0,0,0-11.528,5.69,19.856,19.856,0,0,0-5.857,16.76c.024.231.042.437.057.625a19.894,19.894,0,0,0-4.028,5.127l-.013.024-.013.024a15.5,15.5,0,0,0-.906,12.344,26.589,26.589,0,0,0,7.362,10.659q-.165.4-.323.816c-1.762,4.581-3.8,7.884-5.881,9.551a10.257,10.257,0,0,1-4.219,1.806l-.05.013-.061.015q-.221.062-.428.118c-.329.088-.645.173-.945.259l-.044.013-.044.013a19.178,19.178,0,0,0-13.555,16.361,17.57,17.57,0,0,0,7.329,16.036l-2.81,3.6a18.7,18.7,0,0,0-3.979,12.046,13.051,13.051,0,0,0,.419,3.6v.371l.29.785v.11l.318.768.7,2.518.428.43,4.2,11.651a22.276,22.276,0,0,0,20.91,14.691H599.172a22.263,22.263,0,0,0,20.917-14.711l4.7-13.048a18.984,18.984,0,0,0,.981-2.731,13.127,13.127,0,0,0,.66-4.6,18.6,18.6,0,0,0-3.99-11.9Zm-5.642,13.875a6.433,6.433,0,0,0-1.268-2.76l-2.7-3.442,2.7,3.442a6.433,6.433,0,0,1,1.268,2.76,6.187,6.187,0,0,1,.11,1.176,6.187,6.187,0,0,0-.11-1.176m-345.694-2.753c-.039.048-.07.1-.107.151.037-.051.068-.1.107-.151l15.066-19.315a29.022,29.022,0,0,1-5.508.57,18.893,18.893,0,0,1-5.965-.919,18.893,18.893,0,0,0,5.965.919,29.022,29.022,0,0,0,5.508-.57Zm2.3-20.145c-.3-.125-.6-.261-.9-.4.3.142.6.279.9.4m26-39.191q-.471.382-.91.8.441-.418.91-.8m-2.731-35.066c.2-.094.4-.18.612-.261-.208.081-.412.167-.612.261m.834-.347c.215-.079.432-.153.651-.222-.219.068-.436.143-.651.222m.777-.261c.259-.077.52-.145.783-.208-.263.064-.524.132-.783.208m.994-.256q.306-.066.612-.125-.306.059-.612.125m74.856-93.454q.309.668.638,1.323c-.636.307-1.639.816-2.951,1.549,1.312-.733,2.314-1.242,2.951-1.549q-.329-.655-.638-1.323m75.18-181.41q2.356.128,4.631.356-2.277-.224-4.631-.356M509,1012.719h0q.6-1.217,1.141-2.5-.54,1.28-1.141,2.5m83.192,104.94M603.3,1181.7a29.682,29.682,0,0,1-5.686-.6,29.682,29.682,0,0,0,5.686.6,21.255,21.255,0,0,0,2.244-.119,21.255,21.255,0,0,1-2.244.119m2.481-.147a17.964,17.964,0,0,0,1.884-.327,17.964,17.964,0,0,1-1.884.327m-8.2-19.618c.206.224.415.441.621.649-.206-.208-.415-.426-.621-.649m-3.964-26.561a32.391,32.391,0,0,1-2.826,2.312,32.391,32.391,0,0,0,2.826-2.312,16.1,16.1,0,0,0,4.054-5.256,16.1,16.1,0,0,1-4.054,5.256m2.83,25.239a41.192,41.192,0,0,1-6.083-11.117c-.1-.25-.2-.49-.3-.733.1.243.208.483.3.733a41.192,41.192,0,0,0,6.083,11.117m-11.87-55.577c.213.04.425.081.638.13-.213-.048-.426-.09-.638-.13m.864.18c.267.061.535.129.8.208-.266-.079-.533-.147-.8-.208m.816.213c.259.077.513.164.763.254-.25-.09-.5-.178-.763-.254m.981.338c.2.079.406.164.605.254-.2-.09-.4-.175-.605-.254m.774.331c.246.116.485.244.717.38-.232-.136-.472-.263-.717-.38m-3.242,35.2a16.685,16.685,0,0,1,1.7,1.648,16.685,16.685,0,0,0-1.7-1.648m13.125-11.82a3.753,3.753,0,0,0,.143-1.476,3.753,3.753,0,0,1-.143,1.476m-2.606-5.122a16.53,16.53,0,0,1,1.305,1.176,16.53,16.53,0,0,0-1.305-1.176,12.323,12.323,0,0,1-1.356-1.25,5.887,5.887,0,0,1-.393-.492,5.887,5.887,0,0,0,.393.492,12.323,12.323,0,0,0,1.356,1.25m-2.935-4.828a9.163,9.163,0,0,0,.235,1.077,9.163,9.163,0,0,1-.235-1.077m.594,2.064c.075.165.156.323.239.472-.083-.149-.164-.307-.239-.472m-.915-11.118a6.765,6.765,0,0,0-1.215-2.246,6.765,6.765,0,0,1,1.215,2.246m-2.426-3.409a7.1,7.1,0,0,1,.621.527,7.1,7.1,0,0,0-.621-.527m-.724-.5c.184.112.364.233.54.36-.175-.127-.355-.248-.54-.36m-4.488-1.571c-.265-.044-.529-.083-.79-.116.261.033.524.073.79.116m-.97-.136c-.211-.027-.419-.046-.625-.066.206.02.415.04.625.066m-.844-.084c-.241-.02-.483-.035-.717-.046.235.011.476.026.717.046m-.753-.048c-.246-.011-.487-.018-.722-.022.235,0,.474.011.722.022m-.921-.022c-.213,0-.421,0-.619,0,.13,0,.261,0,.4,0,.072,0,.147,0,.221,0m-2.909.134c.112-.013.241-.024.38-.037-.138.013-.268.024-.38.037m.452-.044.456-.033-.456.033m.555-.04c.171-.011.349-.022.54-.028-.191.007-.371.018-.54.028m.627-.033c.2-.006.413-.013.634-.018-.222,0-.432.011-.634.018M547.681,1045.4q2.113,2.655,4.258,5.607-2.139-2.955-4.258-5.607a140.625,140.625,0,0,0-12.045-13.322,140.625,140.625,0,0,1,12.045,13.322m8.534,11.824c-.755-1.156-1.511-2.273-2.268-3.37.757,1.1,1.514,2.213,2.268,3.37m-11.1-93.359c1.077,12.4-4.447,24.611-12.208,32.855a41.79,41.79,0,0,1-3.631,3.429,29.666,29.666,0,0,1-11.817,6.311c-.079.015-.693.136-1.538.3-.564.107-1.233.232-1.913.358-.851.156-1.724.312-2.444.43-.145.022-.283.044-.412.066q-.237.668-.489,1.323.254-.655.489-1.323c.129-.022.268-.044.412-.066.719-.118,1.593-.274,2.444-.43.68-.125,1.349-.25,1.913-.358.845-.16,1.459-.281,1.538-.3a29.666,29.666,0,0,0,11.817-6.311,41.79,41.79,0,0,0,3.631-3.429c7.761-8.244,13.285-20.454,12.208-32.855a33.275,33.275,0,0,0-.605-4.094,33.275,33.275,0,0,1,.605,4.094m-33.226-62.233,0-.039,0,.039m30.694,52.311c-.206-.439-.417-.866-.638-1.274.222.408.432.836.638,1.274m1.838,5.434c-.118-.526-.25-1.04-.393-1.536.143.5.274,1.009.393,1.536m-.516-1.957a26.607,26.607,0,0,0-1.1-2.983,26.607,26.607,0,0,1,1.1,2.983m-2.362-5.467a22.842,22.842,0,0,0-1.29-1.963,22.842,22.842,0,0,1,1.29,1.963m-2.117-3.021c-.184-.222-.368-.439-.557-.65.189.211.373.428.557.65m-28.481-62.762q-.191-1.24-.43-2.536.24,1.293.43,2.536m-1.274-6.528q-.323-1.362-.706-2.762.385,1.4.706,2.762m-1.11-4.168q-.418-1.412-.9-2.847.487,1.435.9,2.847m-2.538-7.182q-.6-1.451-1.286-2.9.685,1.451,1.286,2.9m-8.512-14.632c-.634-.805-1.281-1.6-1.952-2.365.671.766,1.318,1.56,1.952,2.365m2.85,3.935c-.581-.88-1.189-1.735-1.81-2.573.621.838,1.228,1.694,1.81,2.573m-6.12-7.748q-.668-.711-1.362-1.4.694.684,1.362,1.4m-4.484-4.249q-1.188-1.01-2.437-1.952,1.25.944,2.437,1.952m-44.4-17.5-.031-.026.031.026m-1.952-1.253a7.012,7.012,0,0,0-.956-.294,7.012,7.012,0,0,1,.956.294m-6.963,1.224a4.174,4.174,0,0,0-1.224,2.189,4.174,4.174,0,0,1,1.224-2.189m-9.214,2.815c-.731.088-1.452.182-2.17.283.717-.1,1.439-.2,2.17-.283m-14.557,2.975c-.711.215-1.413.443-2.108.678.7-.235,1.4-.463,2.108-.678m-4.964,1.7c-.7.27-1.384.553-2.064.842.68-.289,1.367-.572,2.064-.842m-6.193,2.768q-1.487.763-2.913,1.6,1.428-.833,2.913-1.6m-16.705,12.9a55.858,55.858,0,0,1,7.053-6.693,55.858,55.858,0,0,0-7.053,6.693,57.02,57.02,0,0,0-5.063,6.66,57.02,57.02,0,0,1,5.063-6.66m-6.144,8.38q-1.043,1.731-1.955,3.486.911-1.754,1.955-3.486M368.541,893.5c-.083,1.211-.136,2.327-.167,3.337.031-1.009.083-2.126.167-3.337m-.2,5.254v.818c.007,1.292.05,2.231.081,2.729v.007c-.059.044-.136.1-.211.16.075-.057.151-.116.211-.16V902.3c-.031-.5-.075-1.437-.081-2.729v-.818m-4.912,8.011c.395-.4.772-.772,1.136-1.123-.364.351-.742.719-1.136,1.123-.794.812-1.641,1.729-2.514,2.749.873-1.02,1.72-1.937,2.514-2.749m4.354-3.964c-.384.3-.875.711-1.446,1.209.57-.5,1.062-.9,1.446-1.209m-8.459,8.661c-.36.458-.722.93-1.081,1.422.36-.492.722-.963,1.081-1.422m-4.069,5.949c-.469.79-.932,1.6-1.38,2.453.448-.851.91-1.663,1.38-2.453m-12.927,30.269a22.537,22.537,0,0,1,4.276-3.464c.45-.281.884-.531,1.3-.75l0-.033,0,.033c-.412.219-.849.469-1.3.75a22.537,22.537,0,0,0-4.276,3.464c-.318.331-.636.68-.948,1.049.312-.369.63-.717.948-1.049m-3.584,4.892a23.218,23.218,0,0,1,1.268-2.058c.294-.426.6-.834.9-1.22-.307.386-.61.794-.9,1.22a23.218,23.218,0,0,0-1.268,2.058c-.268.489-.524,1-.768,1.531.243-.533.5-1.042.768-1.531m-1.461,3.2c-.184.485-.353.992-.513,1.511.16-.52.329-1.027.513-1.511m-1.775,8.095q.155-1.747.452-3.317-.3,1.569-.452,3.317c-1.726,19.842,13.452,39.195,27.7,42.606.189.031,4.3.774,6.467,1.114-2.165-.34-6.278-1.083-6.467-1.114-14.25-3.411-29.428-22.764-27.7-42.606M317.117,1071.55q2.037-3.912,4.142-7.491a151.147,151.147,0,0,1,23.587-30.778,151.147,151.147,0,0,0-23.587,30.778q-2.1,3.58-4.142,7.491-1.359,2.606-2.678,5.361,1.319-2.754,2.678-5.361m-12.346,29.876q2.152-6.759,4.591-12.881,1.214-3.06,2.486-5.969-1.27,2.909-2.486,5.969-2.428,6.127-4.591,12.881-.536,1.688-1.055,3.418l-.035,0,.035,0q.517-1.728,1.055-3.418m-1.531,3.376-.189-.013.189.013m-.577-.039-.257-.013.257.013m-.671-.031-.3-.006.3.006m-.746-.013c-.158,0-.318,0-.485,0,.116,0,.233,0,.344,0l.14,0m-3.9.3c.263-.046.524-.086.783-.121-.259.035-.52.074-.783.121m.838-.125c.246-.033.487-.057.726-.079-.239.022-.48.046-.726.079m.948-.1c.2-.016.4-.029.59-.039-.193.011-.391.024-.59.039m.763-.051c.244-.011.48-.02.711-.024-.23,0-.469.013-.711.024m-7.706,2.334a6.922,6.922,0,0,0-.612.52,6.922,6.922,0,0,1,.612-.52m1.577-.967c-.241.116-.476.244-.706.377.23-.134.465-.261.706-.377m-.873.483q-.267.165-.52.349.253-.184.52-.349m-2.2,2.045a6.765,6.765,0,0,0-.612,1.04,6.765,6.765,0,0,1,.612-1.04m-4.186,15.724a11.061,11.061,0,0,0,1.527-1.452,11.061,11.061,0,0,1-1.527,1.452,15.71,15.71,0,0,0-1.305,1.174,15.71,15.71,0,0,1,1.305-1.174m2.064-2.224c-.064.11-.129.217-.2.318.068-.1.134-.208.2-.318m-4.833,6.171a4.236,4.236,0,0,0,.243,1.443,14.9,14.9,0,0,0,4.08,5.517,14.88,14.88,0,0,1-4.08-5.517,4.236,4.236,0,0,1-.243-1.443m-16.091,42.832c-.055.072-.105.145-.156.219.05-.075.1-.147.156-.219m-1.257,4.49a5.066,5.066,0,0,0,1.509,3.078,5.066,5.066,0,0,1-1.509-3.078m.8,30.466-.191-.614a.816.816,0,0,1-.04-.226.816.816,0,0,0,.04.226l.191.614.167.535,0,.011,0-.011Zm.191.614v-.024l-.007-.013.007.013v.024c.039.108.083.215.129.318-.046-.1-.09-.21-.129-.318m6.895,17.227a9.875,9.875,0,0,0,1.805,1.7,9.875,9.875,0,0,1-1.805-1.7m5.513,3.379c-.118-.027-.235-.055-.353-.086.119.031.235.059.353.086m-2.575-.965c-.263-.141-.518-.294-.768-.461.25.167.5.32.768.461m324.106.965c.118-.027.235-.055.353-.086-.118.031-.235.059-.353.086m12.109-19.954-2.455,6.814,2.455-6.814a5.957,5.957,0,0,0,.329-.75,5.957,5.957,0,0,1-.329.75m.7-1.992a.745.745,0,0,0-.013-.355,5.739,5.739,0,0,0,.033-.612,5.739,5.739,0,0,1-.033.612.745.745,0,0,1,.013.355" transform="translate(-254.046 -814.08)" fill="#fff"/>
    <path id="Tracé_342" data-name="Tracé 342" d="M443.8,997.821a3.576,3.576,0,0,1-1.992,3.653c-4.179,2.17-8.871,2.446-15.189.877l-30.633-39.12c2.562-.763,10.85-2.7,17.249,1.733.055.042.116.079.171.123a17.65,17.65,0,0,1,6.026,8.237c6.256,16.273,14.544,18.484,19.493,19.814.423.116.823.222,1.191.331a5.129,5.129,0,0,1,3.683,4.352" transform="translate(-84.618 -637.333)" fill="#edbbac"/>
    <path id="Tracé_343" data-name="Tracé 343" d="M457.567,1036.019a4.759,4.759,0,0,1,.935,3.964l-.467,1.316c-.055.112-.11.2-.171.307l-.02.02v.007a1.8,1.8,0,0,1-.167.239c-.018.031-.042.055-.061.085-.035.044-.066.086-.1.13-.013.007-.02.024-.031.037l-.007,0c-.051.064-.1.119-.154.18l-.044.042a4.127,4.127,0,0,1-.382.371c0,.011-.018.017-.031.03-.055.048-.11.092-.184.154a.5.5,0,0,1-.068.048c-.018.013-.061.044-.072.055a.022.022,0,0,0-.024.013.215.215,0,0,0-.031.024l-.013.006c-.031.024-.061.042-.116.079l-.013.007-.215.129a1.719,1.719,0,0,1-.215.116c-.061.031-.116.055-.208.092a1.7,1.7,0,0,1-.235.1c-.072.031-.147.055-.246.086-.048.02-.105.031-.184.055-.062.013-.129.031-.191.051-.037.007-.068.011-.134.024a.8.8,0,0,1-.173.031c-.024.006-.055.013-.092.02h-.018a.1.1,0,0,0-.037,0c-.123.013-.252.026-.395.037-.092,0-.184.007-.27.007h-7.978a.74.74,0,0,0-.105-.184,22.474,22.474,0,0,0-6.546-6.024,23.548,23.548,0,0,1-9.935-13.063,25.238,25.238,0,0,0-10.6-13.95,20.692,20.692,0,0,1-6.14-5.636,20.926,20.926,0,0,1-3.793-7.428,25.322,25.322,0,0,0-10.6-13.948,20.8,20.8,0,0,1-6.147-5.649,33.066,33.066,0,0,1-3.712-6.825c-1.34-3.03-2.633-5.949-5.19-7.555a.773.773,0,0,0,.136-.331c1.617-8.939,7.777-10.457,8.852-10.648a4.842,4.842,0,0,1,1.095,1.027l3.376,4.311.625.805a.078.078,0,0,1,.02.024l12.473,15.928,31.523,40.246Z" transform="translate(-100.124 -648.673)" fill="#edbbac"/>
    <path id="Tracé_344" data-name="Tracé 344" d="M434.021,968.846a1.876,1.876,0,0,1-.044,1.378c-.935,2.828-5.785,7.628-12.927,10.949l-.037.017c-7.623-5.085-17.144-2.22-18.975-1.593l-12.019-15.343c15.031-.106,24.264-3.591,28.481-5.693.013-.006.024-.019.044-.019a20.844,20.844,0,0,0,3.367-2.01.805.805,0,0,0-1-1.266,18.283,18.283,0,0,1-2.292,1.426c-.761-3.141-1.6-6.259-2.483-9.295,2.132-.184,7.82-.388,10.666,2.336a6.033,6.033,0,0,1,1.636,5.3c-.825,7.93,1.481,9.848,3.5,11.539a7.618,7.618,0,0,1,2.077,2.268" transform="translate(-91.737 -655.052)" fill="#d2d9b4"/>
    <path id="Tracé_345" data-name="Tracé 345" d="M438.746,997.138c1,3.394,1.944,6.917,2.8,10.451-4.427,2.091-13.445,5.219-27.823,5.219a.791.791,0,0,0-.456.147l-2.913-3.736a6.412,6.412,0,0,0-1.856-1.617,6.5,6.5,0,0,0-3.247-.869h-7.026c-8.446-58.885-28.375-99.587-28.579-99.993a.469.469,0,0,0-.062-.1c.265-.447.518-.9.763-1.358a.046.046,0,0,0,.031.013c.116.048,11.925,5.212,26.2,19.043,13.211,12.794,31.243,35.8,42.159,72.767l.013.031" transform="translate(-116.133 -705.211)" fill="#37674c"/>
    <path id="Tracé_346" data-name="Tracé 346" d="M425.624,990.148c1.3,2.262,1.764,4.284,1.384,6.013-.529,2.385-2.663,4.451-6.34,6.147-12.829,5.908-26.919,3.374-42.681-.265a11.915,11.915,0,0,1-3.946-1.678,3.226,3.226,0,0,1-1.415-3.1,3.8,3.8,0,0,1,1.156-1.7c3.438-3.24,8.889-3.468,14.182-3.431l6.831.055a25.35,25.35,0,0,0,5.28,2.674,27.111,27.111,0,0,0,17.113.474l.007.006v-.006h-.007a25.888,25.888,0,0,0-13.05-10.6c-.805-.3-1.63-.553-2.466-.774-.72-1.013-1.081-1.74-.761-2.442.287-.632,1.112-1.068,2.507-1.327,8.637-1.61,17.975,2.575,22.2,9.953" transform="translate(-112.571 -616.197)" fill="#fff"/>
    <path id="Tracé_347" data-name="Tracé 347" d="M392.914,986.911v.007l-.007-.007Z" transform="translate(-88.288 -607.771)" fill="#fff"/>
    <path id="Tracé_348" data-name="Tracé 348" d="M394.171,982.717c.829,1.126,1.764,2.391,1.654,3.892-.208,2.828-3.652,3.835-6.849,3.835h-.123l-1.93-.018a25.245,25.245,0,0,1-7.763-7.954,27.294,27.294,0,0,1,14.643-.27c.11.164.233.338.368.515" transform="translate(-104.698 -614.432)" fill="#37674c"/>
    <path id="Tracé_349" data-name="Tracé 349" d="M490.032,952.264h7.715a1.414,1.414,0,0,1,.167.007c-2.643,1.211-6.579,4.148-7.864,11.1a9.912,9.912,0,0,0-3.521-.577l-1.057.024c-8.2,0-10.727.812-13.169,1.586s-4.727,1.5-12.669,1.5a73.018,73.018,0,0,1-15.979-1.529,85.742,85.742,0,0,0-32.581,0,84.261,84.261,0,0,1-31.96,0,85.741,85.741,0,0,0-32.581,0,73.092,73.092,0,0,1-15.977,1.529c-7.954,0-10.519-.73-13.23-1.511s-5.482-1.573-13.627-1.58l-.105-.013a.52.52,0,0,0-.105-.011,11.4,11.4,0,0,0-3.545.509c-1.3-6.9-5.221-9.823-7.851-11.028a1.378,1.378,0,0,1,.167-.007H490.032Z" transform="translate(-208.631 -649.13)" fill="#edbbac"/>
    <path id="Tracé_350" data-name="Tracé 350" d="M397.183,974.909c.116,1.617-2.6,2.483-3.762,2.784-4.857,1.231-10.352,2.626-15.621,1.919-1.15-.154-2.422-.61-2.545-1.439-.129-.9,1.217-1.733,1.8-2.047l.127-.085a20.253,20.253,0,0,1,12.068-3.758,23.465,23.465,0,0,1,4.352.412c1.58.3,3.486.928,3.584,2.213" transform="translate(-109.37 -625.233)" fill="#fff"/>
    <path id="Tracé_351" data-name="Tracé 351" d="M387.979,992.626a25.342,25.342,0,0,1-5.28-2.674l1.931.018h.123c3.2,0,6.638-1.007,6.849-3.835.11-1.5-.825-2.766-1.654-3.892-.136-.178-.259-.351-.369-.515q1.254.329,2.464.774a25.872,25.872,0,0,1,13.052,10.6,27.132,27.132,0,0,1-17.115-.474" transform="translate(-100.474 -613.958)" fill="#37674c"/>
    <path id="Tracé_352" data-name="Tracé 352" d="M399.047,1005.112h-4.874c-5.239-36.448-14.946-62.057-21.375-79.043-2.139-5.649-4-10.549-5.267-14.7a42.63,42.63,0,0,0,3.516-4.727c2.8,5.976,20.224,44.5,28,98.469" transform="translate(-118.581 -703.588)" fill="#fff"/>
    <path id="Tracé_353" data-name="Tracé 353" d="M387.126,889.624a38.526,38.526,0,0,1-2.163,13.254,6.208,6.208,0,0,0-3.628-1.18,6.145,6.145,0,0,0-6.14,6.14,6.04,6.04,0,0,0,.092,1.057,12.212,12.212,0,0,1-1.647.123,181.374,181.374,0,0,0-.535-34.437,26.843,26.843,0,0,1,11.962,3.749,35.912,35.912,0,0,1,2.06,11.293" transform="translate(-111.927 -741.859)" fill="#edbbac"/>
    <path id="Tracé_354" data-name="Tracé 354" d="M389.451,964.469a6,6,0,0,1,1.487,5.1c-.123.044-12.122,4.076-21.571,1.217a19.5,19.5,0,0,1,14.059-7.875c2.139-.167,4.506.1,6.024,1.555" transform="translate(-116.387 -636.469)" fill="#37674c"/>
    <path id="Tracé_355" data-name="Tracé 355" d="M392.124,965.925a11.915,11.915,0,0,1-.436,2.2c-1.112,3.769-3.615,7.432-7.456,8.786l.116-.088a11.437,11.437,0,0,1-3.523.825,25.479,25.479,0,0,1-6.921-.627c-1.88-.355-3.946-.891-4.949-2.452-1.106-1.709-.461-3.96.522-5.737a16.551,16.551,0,0,1,1.077-1.689C380,970,392,965.969,392.124,965.925" transform="translate(-117.573 -632.823)" fill="#37674c"/>
    <path id="Tracé_356" data-name="Tracé 356" d="M396.376,1001.78h-7.592c-5.236-36.442-14.943-62.051-21.373-79.037-1.114-2.926-2.172-5.706-3.086-8.244a40.393,40.393,0,0,0,5.772-5.065c1.279,3.984,3.025,8.612,5.024,13.875,6.392,16.874,16.038,42.325,21.257,78.471" transform="translate(-122.408 -700.256)" fill="#c04d46"/>
    <path id="Tracé_357" data-name="Tracé 357" d="M383.852,892.207a4.527,4.527,0,0,1-7.167,3.688,4.477,4.477,0,0,1-1.654-2.231.1.1,0,0,1-.013-.042,4.434,4.434,0,0,1-.228-1.415,4.538,4.538,0,0,1,7.869-3.073l.013.017a4.525,4.525,0,0,1,1.18,3.056" transform="translate(-109.915 -726.227)" fill="#c04d46"/>
    <path id="Tracé_358" data-name="Tracé 358" d="M391.8,998.506h-9.663c-5.342-37.209-14.667-63.016-20.858-80.125l-.842-2.323a44.691,44.691,0,0,0,7.167-3.881c.886,2.435,1.893,5.078,2.944,7.865,6.395,16.88,16.034,42.323,21.253,78.464" transform="translate(-127.05 -696.982)" fill="#c04d46"/>
    <path id="Tracé_359" data-name="Tracé 359" d="M450.127,882.63c.658,3.216,1.211,6.6,1.654,10.065l-15.7,7.241a25.289,25.289,0,0,0-50.433,2.692c0,.706.031,1.408.086,2.108A12.889,12.889,0,0,0,379.062,903h-.59a12.945,12.945,0,0,0-6.669,1.733c.055-.693.086-1.4.086-2.108a25.289,25.289,0,0,0-50.433-2.692L305.7,892.668c.436-3.442.989-6.812,1.654-10.032,5.563-1.389,13.524-5.489,20.845-16.979a.945.945,0,0,0,.068-.123,84.384,84.384,0,0,0,14.595,1.34c9.306,0,20.064-1.814,27.645-8.626a61.743,61.743,0,0,0,17.225,8.608,64.078,64.078,0,0,0,14.187,2.924,35.759,35.759,0,0,0-13.167,7.667.8.8,0,1,0,1.064,1.2c6.092-5.39,12.583-8.261,19.388-8.6a30.19,30.19,0,0,1,10.918,1.549,39.854,39.854,0,0,1,13.691,7.856.762.762,0,0,0,.553.222.8.8,0,0,0,.553-1.382,40.676,40.676,0,0,0-14.244-8.213c-1.038-.338-2.152-.645-3.332-.9a61.528,61.528,0,0,0,12.092-3.339c7.274,11.33,15.172,15.4,20.693,16.788M369.344,881.3a.8.8,0,0,0-.068-1.136c-12.136-10.734-24.067-9.929-31.929-7.36a40.7,40.7,0,0,0-14.244,8.207.807.807,0,0,0,1.112,1.169A39.692,39.692,0,0,1,337.9,874.32c10.846-3.517,21.038-1.15,30.308,7.057a.808.808,0,0,0,1.136-.075" transform="translate(-192.387 -761.355)" fill="#edbbac"/>
    <path id="Tracé_360" data-name="Tracé 360" d="M383.968,996.056H374.3a298.314,298.314,0,0,0-8.926-41.421c-2.224-15.005-6.89-34.805-7.838-38.752,1.667-.48,3.3-1.033,4.874-1.654l.812,2.248c6.16,17.01,15.424,42.657,20.748,79.579" transform="translate(-130.513 -694.532)" fill="#c04d46"/>
    <path id="Tracé_361" data-name="Tracé 361" d="M386.264,964.777a19.5,19.5,0,0,0-14.059,7.875c-.208-.061-.412-.129-.614-.2l-.443-.154c-1.634-.542-3.319-1.106-3.927-2.4-.641-1.364.154-3.056,1.277-4.021a12.728,12.728,0,0,1,4.839-2.18c4.1-1.2,8.654-2.394,13.143-2.394a20.931,20.931,0,0,1,5.024.573,9.189,9.189,0,0,1,4.953,2.7,4.09,4.09,0,0,1,.59,4.686,6.7,6.7,0,0,1-3.271,2.17,5.993,5.993,0,0,0-1.487-5.1c-1.518-1.457-3.885-1.722-6.024-1.555" transform="translate(-119.224 -638.333)" fill="#fff"/>
    <path id="Tracé_362" data-name="Tracé 362" d="M395.2,984.756a9.719,9.719,0,0,1,.9,5.3c-.614,3.824-4.622,6.45-8.261,7.064-4.26.719-8.718-.559-12.122-1.75-.928-.334-1.858-.678-2.779-1.022a37.23,37.23,0,0,0-14.9-3.258,42.175,42.175,0,0,1-5.857-.528,31.029,31.029,0,0,0-4.082-2.521,29.836,29.836,0,0,0-3.1-1.375,6.25,6.25,0,0,1-.959-1.838c-1.027-3.2,1.007-6.61,3.326-8.428l.1-.092a4.718,4.718,0,0,1,.647-.529,11.265,11.265,0,0,1,2.139-1.156,46.165,46.165,0,0,1,17.894-3.442,54.17,54.17,0,0,1,7.285.491c7.261.97,16.266,4.918,19.776,13.081" transform="translate(-146.955 -626.546)" fill="#fff"/>
    <path id="Tracé_363" data-name="Tracé 363" d="M377.676,992.955a3.088,3.088,0,0,1-.86,2.009c-1.077.671-2.534.167-4.076-.355a17.372,17.372,0,0,0-2.134-.634,8.653,8.653,0,0,0-1.77-.171,21.126,21.126,0,0,0-4.21.566c-2.268.454-4.414.891-6.265.011a2.6,2.6,0,0,1-1.426-1.413,2.535,2.535,0,0,1,1.285-2.663,10.126,10.126,0,0,1,3.78-1.156,28.137,28.137,0,0,1,9.056-.529,13.744,13.744,0,0,1,4.346,1.439,3.9,3.9,0,0,1,2.275,2.9" transform="translate(-131.323 -605.964)" fill="#fff"/>
    <path id="Tracé_364" data-name="Tracé 364" d="M390.194,889.948c.024.45.044.932.044,1.413a23.677,23.677,0,1,1-.044-1.437Zm-2.729,1.413a20.91,20.91,0,1,0-20.913,20.915,20.932,20.932,0,0,0,20.913-20.915" transform="translate(-148.008 -750.088)" fill="#d2d9b4"/>
    <path id="Tracé_365" data-name="Tracé 365" d="M371.705,968.58h-9.663c-1.02-7.136-2.268-14.22-3.7-21.042,4.622-2.841,7.02-6.3,7.143-10.29a293.451,293.451,0,0,1,6.221,31.333" transform="translate(-129.55 -667.056)" fill="#c04d46"/>
    <path id="Tracé_366" data-name="Tracé 366" d="M393.192,861.354c-4.093-2.016-19.2-8.9-41.053-12.62a6.355,6.355,0,0,0,1.426-1.119c24.111,4.4,39.368,12.546,39.528,12.627a1.078,1.078,0,0,0,.136.061c-.013.393-.024.75-.037,1.051" transform="translate(-136.953 -774.049)" fill="#d2d9b4"/>
    <path id="Tracé_367" data-name="Tracé 367" d="M446.056,876.625a59.655,59.655,0,0,1-20.1,4.291,61.239,61.239,0,0,1-21.141-3.025,62.658,62.658,0,0,1-16.6-8.218c.5-.518.989-1.053,1.446-1.6a.805.805,0,0,0-1.235-1.033,24.607,24.607,0,0,1-1.9,2.036.576.576,0,0,0-.066.061l-.149.147c-12.072,11.28-33.392,8.7-42,7.07h-.037c-2.4-.467-3.872-.856-3.885-.862a.805.805,0,1,0-.417,1.555c.055.02,1.185.314,3.128.709-7.149,11.01-14.8,14.759-20.015,15.964l-.02.007c-.018.007-.035.007-.055.013l-.024,0a18.506,18.506,0,0,1-4.052.48,10.114,10.114,0,0,1-1.149-.055.8.8,0,1,0-.232,1.586,9.949,9.949,0,0,0,1.4.079,18.376,18.376,0,0,0,3.209-.289c-.6,3.056-1.114,6.228-1.525,9.474-1.551.092-8.011.713-13.217,4.346a15.777,15.777,0,0,0-4.778,5.158.8.8,0,0,0,.3,1.095.862.862,0,0,0,.4.11.818.818,0,0,0,.7-.41,13.5,13.5,0,0,1,2.374-3.049,41.9,41.9,0,0,0,1.413,23.87,6.147,6.147,0,0,0,4.877,9.891,6.1,6.1,0,0,0,3.578-1.156,6.033,6.033,0,0,0,1.972-2.378,13.072,13.072,0,0,0,1.814.171c.436,4.973,1.044,9.861,1.845,14.544a60.786,60.786,0,0,0,2.047,8.472c-.88-.147-1.913-.327-2.854-.492-1.463-.259-2.7-.48-2.7-.48-13.579-3.247-28.081-21.823-26.427-40.893,1-11.495,7.046-16.861,11.989-19.34.031-.011.055-.031.092-.048l.208-.105a19.292,19.292,0,0,1,2.876-1.13,11.067,11.067,0,0,1,1.176-.3.808.808,0,0,0-.276-1.593A18.474,18.474,0,0,0,304.4,902.5c.682-25.548,19.906-39.133,20.1-39.263a.918.918,0,0,0,.136-.123c2.183-1.132,30.367-15.376,70.363-15.376a173.1,173.1,0,0,1,24.927,1.819l.031.006c27.584,4.039,45.368,13.531,45.546,13.623a.912.912,0,0,0,.419.1c1.235.886,19.364,14.41,20.039,39.208a17.739,17.739,0,0,0-3.65-1.187.808.808,0,0,0-.27,1.593,16.2,16.2,0,0,1,3.534,1.193l.191.086c.16.072.325.147.491.232,4.284,2.121,11.072,7.353,12.116,19.408,1.661,19.07-12.842,37.646-26.39,40.893-.037.006-3.209.621-5.379.983a60.291,60.291,0,0,0,2.047-8.49c.794-4.684,1.415-9.571,1.838-14.531a14.129,14.129,0,0,0,2.281-.178,6.139,6.139,0,1,0,10.425-6.351,38.491,38.491,0,0,0,2.52-14.478,35.318,35.318,0,0,0-1.443-9.571,13.776,13.776,0,0,1,2.558,3.223.81.81,0,0,0,.7.41.837.837,0,0,0,.393-.11.8.8,0,0,0,.3-1.1,15.85,15.85,0,0,0-5.035-5.324l-.013,0c-5.761-3.885-12.9-4.168-13.279-4.188h-.007c-.406-3.251-.915-6.423-1.525-9.459a18.506,18.506,0,0,0,3.247.294,10.073,10.073,0,0,0,1.4-.079.8.8,0,1,0-.239-1.586,16.069,16.069,0,0,1-5.252-.437c-.018-.007-.035-.007-.061-.013-5.2-1.2-12.853-4.949-19.985-15.933,1.979-.831,3.96-1.766,5.9-2.786a.807.807,0,0,0-.757-1.426,69.418,69.418,0,0,1-6.491,3.025.294.294,0,0,0-.075.024" transform="translate(-208.915 -773.903)" fill="#fff"/>
    <path id="Tracé_368" data-name="Tracé 368" d="M365.047,868.949a20.91,20.91,0,1,1-20.908,20.908,20.93,20.93,0,0,1,20.908-20.908m10.4,20.943a.8.8,0,0,0,0-1.136l-9.049-9.049a.8.8,0,1,0-1.138,1.136l9.049,9.049a.81.81,0,0,0,.566.235.825.825,0,0,0,.573-.235m-.437,9.486a.812.812,0,0,0,0-1.143L356.915,880.15a.807.807,0,0,0-1.145,1.136l18.091,18.091a.816.816,0,0,0,1.145,0m-9.369.32a.8.8,0,0,0,0-1.136l-9.049-9.049a.8.8,0,0,0-1.136,1.136L364.5,899.7a.778.778,0,0,0,.564.235.794.794,0,0,0,.573-.235" transform="translate(-146.503 -748.583)" fill="#12100f"/>
    <path id="Tracé_369" data-name="Tracé 369" d="M366.1,962.525h-9.663c-.805-5.611-1.77-11.212-2.865-16.672a46.411,46.411,0,0,0,8.981-3.534c1.378,6.577,2.564,13.364,3.547,20.206" transform="translate(-135.24 -661.001)" fill="#c04d46"/>
    <path id="Tracé_370" data-name="Tracé 370" d="M368.7,962.64c1.691.7,3.449,2,3.339,3.554a3.711,3.711,0,0,1-1.654,2.409,8.757,8.757,0,0,1-7.279,1.323c-.259-.068-.516-.154-.768-.246l.546-.044a25.927,25.927,0,0,0-15.3-5.464,3.585,3.585,0,0,1,.412-1.1c.836-1.474,2.858-2.218,6.184-2.279,4.874-.088,10.008-.02,14.52,1.849" transform="translate(-142.395 -638.979)" fill="#fff"/>
    <path id="Tracé_371" data-name="Tracé 371" d="M362.942,884.166l-9.049-9.049a.8.8,0,1,1,1.136-1.136l9.049,9.049a.8.8,0,0,1,0,1.136.817.817,0,0,1-.57.235.806.806,0,0,1-.566-.235" transform="translate(-135.14 -742.857)" fill="#fff"/>
    <path id="Tracé_372" data-name="Tracé 372" d="M384.037,838.377c4.014,3.227,3.128,8.261,2.558,10.273-1.272,4.547-4.716,8.305-8.022,8.8a173.262,173.262,0,0,0-51.453.02c-.092-3.448.768-16.218,17.907-19.241a.247.247,0,0,0,.066-.007h.007c.02-.006.037-.006.057-.013.127-.031,3.067-.829,8.974-5.107,3.9-2.828,7.678-3.973,10.087-3.056,1.476.553,2.466,1.9,2.946,3.995a6.252,6.252,0,0,1,.11,2.135.848.848,0,0,0-.024.164v.026c-.529,3.486-3.929,5.748-3.966,5.771a.8.8,0,0,0-.233,1.112.793.793,0,0,0,.676.369.8.8,0,0,0,.437-.129c.167-.11,3.843-2.545,4.624-6.57,1.727-.757,9.1-3.492,15.251,1.457" transform="translate(-166.826 -795.39)" fill="#fff"/>
    <path id="Tracé_373" data-name="Tracé 373" d="M367.323,967.834l-.136.013a22.962,22.962,0,0,1-23.791-4.157,25.25,25.25,0,0,1,9.178-1.364,3.142,3.142,0,0,0-.055.583,4.034,4.034,0,0,0,1.18,2.674c.959.954,2.551,1.384,4.752,1.292.491-.024.989-.062,1.487-.1.75-.062,1.514-.123,2.281-.123a10.156,10.156,0,0,1,2.115.2,15.611,15.611,0,0,1,2.207.7c.265.1.522.2.781.283" transform="translate(-147.39 -637.137)" fill="#37674c"/>
    <path id="Tracé_374" data-name="Tracé 374" d="M360.692,960.368H351.02c-.689-4.8-1.476-9.6-2.367-14.305,3.332-.542,6.436-1.187,9.233-1.937,1.071,5.318,2.012,10.778,2.806,16.242" transform="translate(-141.114 -658.844)" fill="#c04d46"/>
    <path id="Tracé_375" data-name="Tracé 375" d="M358.472,888.636l-9.049-9.049a.8.8,0,0,1,1.136-1.136l9.049,9.049a.8.8,0,0,1,0,1.136.788.788,0,0,1-.57.235.779.779,0,0,1-.566-.235" transform="translate(-140.476 -737.521)" fill="#fff"/>
    <path id="Tracé_376" data-name="Tracé 376" d="M347.61,962.318a25.941,25.941,0,0,1,15.3,5.465l-.548.044h0c-.259-.086-.518-.184-.781-.283a15.319,15.319,0,0,0-2.207-.7,10.156,10.156,0,0,0-2.115-.2c-.768,0-1.531.061-2.281.123-.5.037-1,.074-1.487.1-2.2.092-3.793-.338-4.752-1.292a4.033,4.033,0,0,1-1.18-2.674,3.142,3.142,0,0,1,.055-.583" transform="translate(-142.425 -637.128)" fill="#37674c"/>
    <path id="Tracé_377" data-name="Tracé 377" d="M371.1,995.656l.59.413a19.312,19.312,0,0,1-11.8,2.869,11.462,11.462,0,0,0-3.486-1.307,45.322,45.322,0,0,0-5.164-.93c-.6-.287-1.187-.594-1.753-.934-6.651-3.951-11.041-10.782-13.2-17.993a32.916,32.916,0,0,1,17.618,1.654c1.63,2.152,4.561,3.4,7.119,3.885.018.006.044.006.061.013A30.557,30.557,0,0,1,371.1,995.656" transform="translate(-155.872 -619.307)" fill="#37674c"/>
    <path id="Tracé_378" data-name="Tracé 378" d="M350.712,874.186,368.8,892.271a.814.814,0,0,1,0,1.145.831.831,0,0,1-.57.233.82.82,0,0,1-.573-.233l-18.091-18.094a.806.806,0,0,1,1.143-1.136" transform="translate(-140.302 -742.619)" fill="#fff"/>
    <path id="Tracé_379" data-name="Tracé 379" d="M355.512,959.177H344.219l-.693-12.952c3.326-.265,6.564-.634,9.657-1.1.873,4.611,1.654,9.332,2.33,14.053" transform="translate(-147.235 -657.653)" fill="#c04d46"/>
    <path id="Tracé_380" data-name="Tracé 380" d="M367.521,988.954a3.274,3.274,0,0,1,1.259,3.319,4.459,4.459,0,0,1-2.518,2.3,15.289,15.289,0,0,1-7.555,1.494,31.75,31.75,0,0,1-3.714-.516c-.935-.167-1.9-.344-2.878-.45a43.9,43.9,0,0,0-10.714.542,62.474,62.474,0,0,1-7.34.682c-1.321.024-3.005-.184-3.527-1.242-.432-.886.184-2.047.983-2.8a16.586,16.586,0,0,1,3.885-2.637h.007a43.38,43.38,0,0,1,22.874-3.35,23.487,23.487,0,0,0,8.65,2.238,4.931,4.931,0,0,1,.59.423" transform="translate(-162.914 -608.898)" fill="#fff"/>
    <path id="Tracé_381" data-name="Tracé 381" d="M351.44,982.126c-2.558-.48-5.489-1.733-7.119-3.885a29.132,29.132,0,0,1,3.1,1.378,30.646,30.646,0,0,1,4.082,2.521c-.017-.007-.044-.007-.061-.013" transform="translate(-146.286 -618.121)" fill="#37674c"/>
    <path id="Tracé_382" data-name="Tracé 382" d="M348.269,987.044a11.525,11.525,0,0,1,3.486,1.31,23.4,23.4,0,0,1-8.65-2.238,44.823,44.823,0,0,1,5.164.928" transform="translate(-147.737 -608.721)" fill="#37674c"/>
    <path id="Tracé_383" data-name="Tracé 383" d="M360.46,900.712a1.777,1.777,0,0,1,.6.891l-5.625,1.378a46.643,46.643,0,0,1-8.663.843,49.824,49.824,0,0,1-14.285-2.22,1.759,1.759,0,0,1,.6-.891c2.681-1.992,8.926-5.938,13.015-3.135a1.149,1.149,0,0,0,1.345,0c4.082-2.8,10.328,1.143,13.009,3.135" transform="translate(-160.408 -715.571)" fill="#c04d46"/>
    <path id="Tracé_384" data-name="Tracé 384" d="M346.845,945.679l.7,12.835H339.4V945.986c2.264-.018,4.857-.129,7.445-.307" transform="translate(-152.16 -656.99)" fill="#c04d46"/>
    <path id="Tracé_385" data-name="Tracé 385" d="M346.425,929.988a4.972,4.972,0,1,1-4.741-3.486,4.958,4.958,0,0,1,4.741,3.486" transform="translate(-155.335 -679.882)" fill="#fff"/>
    <path id="Tracé_386" data-name="Tracé 386" d="M341.69,935.683a4.949,4.949,0,1,1-4.949,4.949,4.96,4.96,0,0,1,4.949-4.949" transform="translate(-155.334 -668.923)" fill="#fff"/>
    <path id="Tracé_387" data-name="Tracé 387" d="M341.381,820.419c1.93,0,3.554.959,4,2.251-1.542-.061-3.135-.088-4.745-.088-1.1,0-2.189.013-3.24.044a4.133,4.133,0,0,1,3.984-2.207" transform="translate(-154.551 -806.513)" fill="#d2d9b4"/>
    <path id="Tracé_388" data-name="Tracé 388" d="M364.255,964.746c3.22,1.777,6.215,5.25,5.177,8.681-.665,2.2-3.014,4.025-6.283,4.874a36.4,36.4,0,0,1-9.271.8c-2.053.013-4.175.02-6.259.241a58.325,58.325,0,0,0-7.913,1.586c-1.487.368-3.016.748-4.537,1.051a49.436,49.436,0,0,1-11.1.921c-4.093-.116-6.8-1.057-8.275-2.859-1.665-2.047-1.406-4.966-.283-7.142.149-.112.29-.228.432-.338a48.912,48.912,0,0,0,4.831-4.475l.007-.007A58.444,58.444,0,0,1,347.6,961.3a49.547,49.547,0,0,1,5.98.355,29.172,29.172,0,0,1,10.679,3.087" transform="translate(-181.747 -638.339)" fill="#fff"/>
    <path id="Tracé_389" data-name="Tracé 389" d="M341.057,918.411c.32,0,.535-.006.645-.013h.013c.1.007.325.013.632.013a20.529,20.529,0,0,0,3.168-.263,4.869,4.869,0,0,1,.908,1.683,4.953,4.953,0,1,1-8.544-1.689,20.107,20.107,0,0,0,3.179.27" transform="translate(-155.335 -689.862)" fill="#fff"/>
    <path id="Tracé_390" data-name="Tracé 390" d="M346.585,909.564c-1.555-.079-9.172-.928-13.985-9.755-.024-.05-.05-.1-.068-.147q2.655.773,5.256,1.266a48.639,48.639,0,0,0,8.937.86,51.033,51.033,0,0,0,14.2-2.128,1.464,1.464,0,0,1-.068.149c-4.806,8.827-12.429,9.676-13.978,9.755v.013s-.057,0-.149-.007-.141.007-.141.007Z" transform="translate(-160.358 -711.924)" fill="#c04d46"/>
    <path id="Tracé_391" data-name="Tracé 391" d="M379.382,968.633a17.239,17.239,0,0,1-3.927-.307,22.324,22.324,0,0,1-10.242-4.782h-.007a25.27,25.27,0,0,1-4.635-5.133.806.806,0,1,0-1.327.915,27.439,27.439,0,0,0,3.585,4.243,66.922,66.922,0,0,1-22.869-1.856.1.1,0,0,0-.042-.013,49.678,49.678,0,0,1-4.888-1.586,44.643,44.643,0,0,1-8.507-4.3l-.037-.024a39.934,39.934,0,0,1-8.066-6.958.085.085,0,0,0-.031-.037,41.221,41.221,0,0,1-4.273-5.833c-.434-.733-.853-1.476-1.242-2.22a.351.351,0,0,1-.031-.055,47.376,47.376,0,0,1-2.777-6.461,57.732,57.732,0,0,1-2.4-9.474c-.825-4.861-1.463-9.933-1.893-15.091,0-.024-.007-.037-.007-.061-.43-5.214-.645-10.451-.645-15.608a166.984,166.984,0,0,1,1.068-19.278l15.83,7.3c-.018.314-.024.638-.024.972a25.3,25.3,0,0,0,50.218,4.278.51.51,0,0,0,.11-.079,10.516,10.516,0,0,1,6.838-2.213h.59a10.543,10.543,0,0,1,6.829,2.2.717.717,0,0,0,.11.086,25.294,25.294,0,0,0,50.225-4.271c0-.333-.007-.658-.024-.972l15.779-7.279a179.386,179.386,0,0,1,.443,34.825c0,.024-.007.037-.007.061-.423,5.157-1.057,10.253-1.88,15.128a58.127,58.127,0,0,1-2.38,9.413v.018a47.212,47.212,0,0,1-2.617,6.153c-.456.886-.941,1.77-1.459,2.619a40.271,40.271,0,0,1-4.234,5.8.493.493,0,0,0-.057.062l-.024.024a39.148,39.148,0,0,1-6.89,6.156.086.086,0,0,0-.031.024,44.1,44.1,0,0,1-8.36,4.574.053.053,0,0,0-.031.011l-.026.013A51.62,51.62,0,0,1,419,961.7l-.035.007a.348.348,0,0,0-.044.011,66.76,66.76,0,0,1-22.856,1.852,27.846,27.846,0,0,0,3.591-4.243.807.807,0,0,0-1.329-.915,25.445,25.445,0,0,1-4.646,5.133h-.007a22.344,22.344,0,0,1-10.236,4.789c-.011-.007-.024,0-.042,0a17.125,17.125,0,0,1-3.887.3h0a.351.351,0,0,0-.118,0m38.181-39.607a.817.817,0,0,0-.522-1.016c-.092-.024-9.251-3.146-12.5-16.413a.8.8,0,1,0-1.56.382,29.643,29.643,0,0,0,4.315,9.9,60.205,60.205,0,0,1-10.15,4.738q-1.714.619-3.411,1.125a1.763,1.763,0,0,0-.6-.891c-2.678-1.992-8.926-5.938-13.006-3.135a1.159,1.159,0,0,1-1.347,0c-4.089-2.8-10.334,1.143-13.013,3.135a1.762,1.762,0,0,0-.6.891q-1.7-.507-3.411-1.125a64.277,64.277,0,0,1-6.869-2.951c-1.757-.88-2.913-1.566-3.306-1.808a29.561,29.561,0,0,0,4.322-9.909.8.8,0,0,0-.59-.972.813.813,0,0,0-.972.59,25.333,25.333,0,0,1-7.432,13.156,16.23,16.23,0,0,1-5.072,3.264.81.81,0,0,0-.516,1.016.8.8,0,0,0,.761.56.9.9,0,0,0,.252-.037,19.453,19.453,0,0,0,8.288-6.364,59.942,59.942,0,0,0,10.585,4.969l4.052,1.314a1.483,1.483,0,0,0,.068.149c4.813,8.827,12.43,9.674,13.985,9.756v.011s.055,0,.14,0,.149,0,.149,0v-.011c1.549-.081,9.172-.928,13.978-9.756a1.458,1.458,0,0,0,.068-.149c1.34-.379,2.692-.823,4.052-1.314a65.428,65.428,0,0,0,7.272-3.137c1.819-.921,2.968-1.621,3.288-1.812a19.375,19.375,0,0,0,8.292,6.368.956.956,0,0,0,.252.037.812.812,0,0,0,.768-.56m-25.984-17.914c1.667-4.15-2.63-7.722-2.808-7.869a.816.816,0,0,0-1.139.11.8.8,0,0,0,.116,1.132c.031.037,3.56,2.981,2.336,6.031a2.658,2.658,0,0,1-1.45,1.623,3.077,3.077,0,0,1-1.636.1,6.478,6.478,0,0,0,.825-1.838.8.8,0,0,0-.608-.954.8.8,0,0,0-.965.6,5.264,5.264,0,0,1-1.176,2.071,8.384,8.384,0,0,1-11.26,0,5.454,5.454,0,0,1-1.176-2.071.8.8,0,0,0-.959-.608.809.809,0,0,0-.614.959,6.662,6.662,0,0,0,.823,1.838,3.05,3.05,0,0,1-1.628-.1,2.648,2.648,0,0,1-1.457-1.623c-1.224-3.049,2.306-5.993,2.341-6.031a.8.8,0,1,0-1.02-1.242c-.184.147-4.482,3.718-2.814,7.869a4.221,4.221,0,0,0,2.378,2.527,4.052,4.052,0,0,0,1.507.27,5.8,5.8,0,0,0,1.812-.307,10.168,10.168,0,0,0,12.879,0,5.761,5.761,0,0,0,1.808.307,4.052,4.052,0,0,0,1.507-.27,4.191,4.191,0,0,0,2.378-2.527m-6.338-8.742a.81.81,0,0,0-.246-1.112,12.477,12.477,0,0,0-11.1,0,.8.8,0,0,0,.86,1.358,11,11,0,0,1,9.382,0,.756.756,0,0,0,.423.123.812.812,0,0,0,.682-.369" transform="translate(-193.076 -741.708)" fill="#edbbac"/>
    <path id="Tracé_392" data-name="Tracé 392" d="M343.282,945.993v12.528H334.8l.689-12.849c2.742.191,5.458.307,7.794.32" transform="translate(-157.652 -656.997)" fill="#c04d46"/>
    <path id="Tracé_393" data-name="Tracé 393" d="M346.837,902.713a48.655,48.655,0,0,1-8.941-.86q-2.6-.49-5.252-1.268a2.441,2.441,0,0,1-.094-1.7,49.84,49.84,0,0,0,14.288,2.22,46.638,46.638,0,0,0,8.661-.842l5.625-1.378a2.393,2.393,0,0,1-.094,1.7,51.018,51.018,0,0,1-14.191,2.128" transform="translate(-160.468 -712.851)" fill="#12100f"/>
    <path id="Tracé_394" data-name="Tracé 394" d="M342.23,887.827a9.634,9.634,0,0,0-4.7,1.051.8.8,0,0,1-.86-1.358,12.477,12.477,0,0,1,11.1,0,.8.8,0,0,1-.436,1.481.762.762,0,0,1-.426-.123,9.536,9.536,0,0,0-4.684-1.051" transform="translate(-155.856 -727.97)" fill="#12100f"/>
    <path id="Tracé_395" data-name="Tracé 395" d="M359.542,921.333a6.559,6.559,0,0,0,5.552,10.058,6.45,6.45,0,0,0,1.93-.289,6.567,6.567,0,0,0,4.333-8.2,6.063,6.063,0,0,0-.72-1.555,23.978,23.978,0,0,0,9.437-4.635,59.594,59.594,0,0,0,7.764.467,66.238,66.238,0,0,0,16.358-2.005c.917,3.786,5.059,21.413,7.384,35.889a.784.784,0,0,0-.173.761c.2.678.406,1.36.61,2.053.5,3.4.842,6.34,1.02,8.711.276,3.83-1.869,7.169-6.382,9.942a1.175,1.175,0,0,0-.246.011.8.8,0,0,0-.559.461,44.335,44.335,0,0,1-9.584,3.806.923.923,0,0,0-.338.006.759.759,0,0,0-.355.191,96.965,96.965,0,0,1-10.174,2.139.671.671,0,0,0-.228.006,1.07,1.07,0,0,0-.154.048c-3.462.542-7.119.959-10.881,1.229h-.018c-3.137.241-6.314.371-8.953.371h-.079c-2.674,0-5.956-.13-9.216-.382h-.024c-3.2-.246-6.351-.59-9.38-1.02l-.037-.007a102.831,102.831,0,0,1-10.745-2.1c-.013-.006-.026-.006-.037-.013a49.819,49.819,0,0,1-10.273-3.725l-.061-.024c-5.1-2.639-7.845-5.846-8.139-9.56,0-.024-.007-.037-.007-.061a7.744,7.744,0,0,1,0-1.316c1.057-14.459,7.685-42.619,8.821-47.415a66.369,66.369,0,0,0,16.371,2.005,59.259,59.259,0,0,0,7.757-.467,23.923,23.923,0,0,0,9.424,4.622m12.1,23.631a6.314,6.314,0,0,0-.29-1.924,6.574,6.574,0,1,0,.29,1.924m0,20.151a6.559,6.559,0,1,0-6.559,6.559,6.562,6.562,0,0,0,6.559-6.559" transform="translate(-178.731 -693.405)" fill="#37674c"/>
    <path id="Tracé_396" data-name="Tracé 396" d="M360.909,891.36a23.68,23.68,0,1,1-47.36,0c0-.48.02-.957.044-1.413v-.033a23.68,23.68,0,0,1,47.316,1.446m-2.766,0a20.91,20.91,0,1,0-20.908,20.915,20.934,20.934,0,0,0,20.908-20.915" transform="translate(-183.018 -750.088)" fill="#d2d9b4"/>
    <path id="Tracé_397" data-name="Tracé 397" d="M339.971,946.088l-.682,12.971h-9.6c.662-4.611,1.43-9.264,2.286-13.838,2.6.355,5.274.645,7.992.866" transform="translate(-163.746 -657.536)" fill="#c04d46"/>
    <path id="Tracé_398" data-name="Tracé 398" d="M335.173,895.087a2.648,2.648,0,0,0,1.457,1.623,3.055,3.055,0,0,0,1.63.1,6.712,6.712,0,0,1-.825-1.838.81.81,0,0,1,.614-.959.8.8,0,0,1,.961.608,5.4,5.4,0,0,0,1.174,2.071,8.387,8.387,0,0,0,11.262,0,5.275,5.275,0,0,0,1.174-2.071.806.806,0,0,1,.965-.6.8.8,0,0,1,.608.954,6.36,6.36,0,0,1-.823,1.838,3.069,3.069,0,0,0,1.634-.1,2.661,2.661,0,0,0,1.452-1.623c1.222-3.049-2.306-5.993-2.336-6.031a.8.8,0,0,1-.118-1.132.816.816,0,0,1,1.139-.11c.178.147,4.475,3.718,2.808,7.869a4.186,4.186,0,0,1-2.378,2.527,4.052,4.052,0,0,1-1.507.27,5.757,5.757,0,0,1-1.805-.307,10.168,10.168,0,0,1-12.879,0,5.807,5.807,0,0,1-1.814.307,4.041,4.041,0,0,1-1.5-.27,4.224,4.224,0,0,1-2.38-2.527c-1.665-4.15,2.63-7.722,2.814-7.869a.8.8,0,1,1,1.022,1.242c-.037.037-3.567,2.981-2.343,6.031" transform="translate(-159.445 -726.279)" fill="#12100f"/>
    <path id="Tracé_399" data-name="Tracé 399" d="M335.728,868.949a20.91,20.91,0,1,1-20.915,20.908,20.933,20.933,0,0,1,20.915-20.908m9.946,20.943a.8.8,0,0,0,0-1.136l-9.045-9.049a.8.8,0,1,0-1.136,1.136l9.042,9.049a.826.826,0,0,0,.573.235.81.81,0,0,0,.566-.235m-.437,9.486a.812.812,0,0,0,0-1.143L327.146,880.15a.794.794,0,0,0-1.139,0,.8.8,0,0,0,0,1.136L344.1,899.378a.81.81,0,0,0,.566.235.826.826,0,0,0,.573-.235m-9.369.32a.8.8,0,0,0,0-1.136l-9.042-9.049a.806.806,0,0,0-1.143,1.136l9.049,9.049a.789.789,0,0,0,.57.235.779.779,0,0,0,.566-.235" transform="translate(-181.509 -748.583)" fill="#12100f"/>
    <path id="Tracé_400" data-name="Tracé 400" d="M336.539,946.1c-.873,4.653-1.661,9.38-2.323,14.07h-9.67c.774-5.353,1.685-10.69,2.722-15.884,2.834.7,5.945,1.31,9.271,1.814" transform="translate(-169.891 -658.651)" fill="#c04d46"/>
    <path id="Tracé_401" data-name="Tracé 401" d="M347.613,979.767a3.481,3.481,0,0,1,.706,2.63,5.857,5.857,0,0,1-2.156,3.806c-2.183,1.726-5.219,2.251-7.893,2.711a13.426,13.426,0,0,0-3.591.976,12.821,12.821,0,0,0-3.049,2.295c-.474.436-.915.847-1.432,1.252a9.457,9.457,0,0,1-11.385.641,14.5,14.5,0,0,1-5.451-5.754c-.978-2-1.2-5,.625-6.879a8.184,8.184,0,0,1,4.949-2.047,27.179,27.179,0,0,1,3.694-.228c1.619,0,3.24.106,4.839.2a41.918,41.918,0,0,0,9.565-.154c.733-.129,1.463-.3,2.169-.456a22.047,22.047,0,0,1,3.635-.614,5.711,5.711,0,0,1,4.776,1.617" transform="translate(-184.131 -618.246)" fill="#fff"/>
    <path id="Tracé_402" data-name="Tracé 402" d="M338.135,893.414l-18.091-18.091a.806.806,0,0,1,0-1.138.8.8,0,0,1,1.136,0l18.091,18.087a.806.806,0,1,1-1.136,1.143" transform="translate(-175.546 -742.619)" fill="#fff"/>
    <path id="Tracé_403" data-name="Tracé 403" d="M331.855,945.869c-1.064,5.318-2,10.8-2.784,16.284h-9.676c.946-6.546,2.091-13.105,3.4-19.524a52.5,52.5,0,0,0,9.062,3.24" transform="translate(-176.04 -660.631)" fill="#c04d46"/>
    <path id="Tracé_404" data-name="Tracé 404" d="M325.5,873.981l9.042,9.049a.8.8,0,0,1-.566,1.371.821.821,0,0,1-.57-.235l-9.042-9.049a.8.8,0,1,1,1.136-1.136" transform="translate(-170.384 -742.857)" fill="#fff"/>
    <path id="Tracé_405" data-name="Tracé 405" d="M330.943,903.437a19.463,19.463,0,0,1-8.286,6.362.851.851,0,0,1-.252.037.806.806,0,0,1-.246-1.573,16.282,16.282,0,0,0,5.07-3.264,25.344,25.344,0,0,0,7.432-13.156.812.812,0,0,1,.972-.59.8.8,0,0,1,.59.972,29.517,29.517,0,0,1-4.322,9.909c.395.239,1.549.928,3.308,1.808a64.5,64.5,0,0,0,6.866,2.95q1.714.619,3.411,1.125a2.48,2.48,0,0,0,.092,1.7l-4.05-1.316a60.009,60.009,0,0,1-10.587-4.967" transform="translate(-173.405 -721.985)" fill="#12100f"/>
    <path id="Tracé_406" data-name="Tracé 406" d="M334.039,915.614c-1.119,4.679-7.807,33.086-8.876,47.715a8.916,8.916,0,0,0-.026,1,.728.728,0,0,0-.252.395,304.828,304.828,0,0,0-6.116,31.067H309.1c5.331-36.957,14.6-62.61,20.759-79.627l.621-1.709c1.163.425,2.356.818,3.56,1.163" transform="translate(-188.33 -694.266)" fill="#c04d46"/>
    <path id="Tracé_407" data-name="Tracé 407" d="M328.944,888.636l-9.049-9.049a.806.806,0,0,1,1.143-1.136l9.042,9.049a.8.8,0,0,1,0,1.136.777.777,0,0,1-.564.235.793.793,0,0,1-.573-.235" transform="translate(-175.724 -737.521)" fill="#fff"/>
    <path id="Tracé_408" data-name="Tracé 408" d="M327.457,946.516c-1.378,6.658-2.564,13.476-3.541,20.274h-9.67c1.378-9.5,3.19-18.916,5.416-28.044,1.136,2.968,3.749,5.57,7.794,7.77" transform="translate(-182.185 -665.266)" fill="#c04d46"/>
    <path id="Tracé_409" data-name="Tracé 409" d="M379.612,969.489a23.747,23.747,0,0,0-15.325-2.058,26.249,26.249,0,0,0-13.518,7.364A11.458,11.458,0,0,0,347.233,981c.559.1,1.125.191,1.691.29,5.225,1.34,10.857,1.764,15.891-.061a25.94,25.94,0,0,0,7.125-4.161c-1.125,2.176-1.384,5.1.283,7.143,1.474,1.8,4.179,2.742,8.272,2.858a49.584,49.584,0,0,0,11.1-.921c1.518-.3,3.047-.682,4.537-1.053a58.858,58.858,0,0,1,7.91-1.586c2.084-.219,4.205-.226,6.259-.239a36.493,36.493,0,0,0,9.271-.8c3.271-.849,5.618-2.674,6.283-4.874,1.04-3.431-1.955-6.9-5.177-8.68A29.158,29.158,0,0,0,410,965.832a49.624,49.624,0,0,0-5.982-.355,58.451,58.451,0,0,0-26.809,6.774q1.257-1.339,2.4-2.762m202.145,68.237H267.347a20.5,20.5,0,0,1,5.5-4.839,25.238,25.238,0,0,0,10.6-13.941,23.628,23.628,0,0,1,9.926-13.07,25.172,25.172,0,0,0,10.6-13.948,23.618,23.618,0,0,1,9.937-13.064,22.588,22.588,0,0,0,6.55-6.031,30.427,30.427,0,0,0,3.775-7.23c1.321-3.238,2.378-5.839,4.936-7.05a8.846,8.846,0,0,1,3.8-.744l.1.013a.927.927,0,0,0,.11,0c7.948,0,10.512.739,13.224,1.52s5.5,1.579,13.684,1.579a74.8,74.8,0,0,0,16.284-1.562,83.8,83.8,0,0,1,31.96,0,85.694,85.694,0,0,0,32.574,0,83.835,83.835,0,0,1,31.967,0,75.01,75.01,0,0,0,16.29,1.562c8.2,0,10.723-.805,13.171-1.586,2.433-.774,4.727-1.514,12.68-1.514l1.057-.018a9.317,9.317,0,0,1,2.545.331c3.187.954,4.464,3.83,6.112,7.551a34.569,34.569,0,0,0,3.9,7.143,22.511,22.511,0,0,0,6.553,6.031,23.644,23.644,0,0,1,9.937,13.064,25.207,25.207,0,0,0,10.6,13.948,23.628,23.628,0,0,1,9.926,13.07,25.239,25.239,0,0,0,10.6,13.941,20.426,20.426,0,0,1,5.5,4.839M552.6,1022.474c.382-1.726-.083-3.749-1.38-6.011-4.232-7.377-13.568-11.563-22.207-9.953-1.4.257-2.22.693-2.51,1.327-.318.7.046,1.426.766,2.442a27.3,27.3,0,0,0-14.645.27,25.27,25.27,0,0,0,7.763,7.954l-6.829-.055c-5.293-.037-10.747.191-14.182,3.431a3.742,3.742,0,0,0-1.154,1.7,3.224,3.224,0,0,0,1.413,3.1,11.906,11.906,0,0,0,3.949,1.678c15.762,3.639,29.85,6.173,42.678.265,3.677-1.7,5.809-3.762,6.338-6.149m-30.387-27.5c1.169-.3,3.881-1.169,3.762-2.786-.1-1.283-2-1.911-3.582-2.211a23.514,23.514,0,0,0-4.352-.412,20.233,20.233,0,0,0-12.065,3.756l-.132.086c-.577.314-1.924,1.145-1.794,2.047.123.831,1.4,1.286,2.545,1.439,5.267.706,10.767-.689,15.619-1.917m-6.223-21.529a4.091,4.091,0,0,0-.592-4.683,9.186,9.186,0,0,0-4.956-2.7,20.9,20.9,0,0,0-5.021-.572c-4.488,0-9.043,1.193-13.145,2.391a12.754,12.754,0,0,0-4.837,2.182c-1.125.965-1.915,2.657-1.279,4.021.608,1.29,2.295,1.856,3.931,2.4l.439.154c.2.066.406.134.616.2a16.4,16.4,0,0,0-1.075,1.691c-.983,1.777-1.63,4.025-.524,5.734,1,1.562,3.069,2.1,4.949,2.455a25.571,25.571,0,0,0,6.921.625,11.491,11.491,0,0,0,3.523-.823l-.116.086c3.841-1.351,6.344-5.017,7.459-8.784a11.96,11.96,0,0,0,.434-2.2,6.708,6.708,0,0,0,3.273-2.17m-28.687,32.581a9.72,9.72,0,0,0-.9-5.3c-3.51-8.163-12.513-12.109-19.774-13.081a54.2,54.2,0,0,0-7.288-.491,46.171,46.171,0,0,0-17.894,3.442,11.229,11.229,0,0,0-2.137,1.156,4.38,4.38,0,0,0-.647.529l-.1.092c-2.319,1.819-4.35,5.23-3.326,8.428a6.2,6.2,0,0,0,.961,1.838,32.916,32.916,0,0,0-17.622-1.654c2.159,7.211,6.548,14.04,13.2,17.993.566.338,1.149.645,1.753.935a43.432,43.432,0,0,0-22.876,3.35h-.007a16.612,16.612,0,0,0-3.883,2.637c-.8.757-1.415,1.92-.985,2.8.522,1.057,2.207,1.268,3.53,1.242a62.583,62.583,0,0,0,7.34-.682,43.881,43.881,0,0,1,10.714-.54c.978.1,1.941.283,2.876.447a32.293,32.293,0,0,0,3.714.518,15.313,15.313,0,0,0,7.555-1.494,4.473,4.473,0,0,0,2.521-2.3,3.27,3.27,0,0,0-1.261-3.321,5.023,5.023,0,0,0-.59-.423,19.3,19.3,0,0,0,11.8-2.872l-.59-.41a30.576,30.576,0,0,0-10.014-12.333,42.184,42.184,0,0,0,5.857.529,37.224,37.224,0,0,1,14.9,3.258c.924.344,1.851.689,2.779,1.022,3.4,1.191,7.862,2.47,12.122,1.75,3.639-.614,7.647-3.24,8.261-7.064m-3.642,25.488a3.121,3.121,0,0,0,.86-2.011,3.9,3.9,0,0,0-2.277-2.9,13.747,13.747,0,0,0-4.346-1.437c-2.988-.487-6.074.031-9.056.529a10.094,10.094,0,0,0-3.78,1.156,2.529,2.529,0,0,0-1.285,2.661,2.589,2.589,0,0,0,1.426,1.413c1.854.88,4,.443,6.265-.011a21.125,21.125,0,0,1,4.212-.566,8.485,8.485,0,0,1,1.768.173,17.51,17.51,0,0,1,2.137.632c1.54.522,3,1.027,4.076.358m-15.858-61.788c.114-1.555-1.645-2.859-3.337-3.554-4.512-1.869-9.646-1.937-14.52-1.849-3.323.062-5.348.805-6.184,2.279a3.645,3.645,0,0,0-.412,1.1,25.243,25.243,0,0,0-9.178,1.365,22.958,22.958,0,0,0,23.791,4.155l.136-.011h0c.254.092.511.178.77.246a8.75,8.75,0,0,0,7.279-1.323,3.7,3.7,0,0,0,1.652-2.409m-65.451,36.94a3.487,3.487,0,0,0-.706-2.633,5.719,5.719,0,0,0-4.776-1.617,21.97,21.97,0,0,0-3.633.617c-.709.16-1.439.325-2.172.454a41.809,41.809,0,0,1-9.565.154c-1.6-.1-3.22-.2-4.837-.2a27.54,27.54,0,0,0-3.7.226,8.171,8.171,0,0,0-4.947,2.049c-1.827,1.873-1.606,4.881-.627,6.877a14.509,14.509,0,0,0,5.451,5.754,9.453,9.453,0,0,0,11.385-.638c.518-.406.959-.818,1.432-1.255a12.759,12.759,0,0,1,3.049-2.293,13.528,13.528,0,0,1,3.591-.978c2.674-.461,5.71-.983,7.893-2.711a5.833,5.833,0,0,0,2.156-3.8m-47.978-11.342a1.931,1.931,0,0,0-.32-1.426c-1.3-2.374-4.4-3.843-7.913-3.826-3.3.044-6.559,1.3-9.439,2.411l-2.253,1.31c-.608.314-1.382.768-1.457,1.321a1.222,1.222,0,0,0,.8,1.088,4.57,4.57,0,0,0,2.067.252c.781-.042,1.586-.134,2.367-.226a29.376,29.376,0,0,1,3.326-.259c.2,0,.4.006.6.011a24.789,24.789,0,0,1,3.859.592c.713.147,1.452.3,2.178.4a7.736,7.736,0,0,0,5.324-.7,1.977,1.977,0,0,0,.86-.952m-5.853-25.745a3.143,3.143,0,0,0,1.551-2.527c-.046-1.579-1.825-2.766-3.488-3.356a11.548,11.548,0,0,0-3.885-.621,19.331,19.331,0,0,0-3.418.338,7.413,7.413,0,0,0-4.1,2.687,12.386,12.386,0,0,0-1.518,2.237,2.243,2.243,0,0,0-.2,1.819c.327.676,1.3,1.075,2.909,1.18a33.711,33.711,0,0,0,8.722-.546,9.455,9.455,0,0,0,3.431-1.211m1.88,48.305a5.209,5.209,0,0,0-.443-2.132c-1.542-3.541-6.331-4.532-9.951-4.3-1.562.1-3.161.357-4.7.6a30.824,30.824,0,0,1-7.943.577,30.457,30.457,0,0,1-8.766-2.7c-1.18-.5-2.4-1.014-3.609-1.446a19.085,19.085,0,0,0-6.153-1.16,8.822,8.822,0,0,0-5.489,1.654c-3.069,2.372-3.383,6.774-2.128,10.782a45.42,45.42,0,0,0-10.813,2.63l-.068.682c4.26,6.583,12.487,10.175,20.564,10.519a40.16,40.16,0,0,0,11.611-1.31,64.994,64.994,0,0,0,15.713-2.06c.086-.018,5.195-1.16,7.241-3.435,2.619-2.909,4.936-5.958,4.936-8.9m-28.97-29.194a2.739,2.739,0,0,0,.336-2.091.964.964,0,0,0-.559-.627c-.676-.27-1.389.173-2.49.93-.355.246-.724.5-1.106.718a10.979,10.979,0,0,1-1.838.75,12.532,12.532,0,0,0-1.242.467c-.641.3-1.384.862-1.47,1.524a6.167,6.167,0,0,0,4.4.825,5.751,5.751,0,0,0,3.966-2.5" transform="translate(-238.169 -642.509)" fill="#c04d46"/>
    <path id="Tracé_410" data-name="Tracé 410" d="M335.119,916.169l-.627,1.74c-6.191,17.115-15.523,42.926-20.875,80.175h-9.665c5.221-36.148,14.86-61.592,21.259-78.467.939-2.5,1.843-4.881,2.654-7.088a45.745,45.745,0,0,0,7.255,3.639" transform="translate(-194.475 -696.56)" fill="#c04d46"/>
    <path id="Tracé_411" data-name="Tracé 411" d="M336.142,964.5c-.763.948-1.568,1.869-2.4,2.76l-.007.006a15.16,15.16,0,0,0-3.2,2.306,18.786,18.786,0,0,0-1.334,1.351,7.13,7.13,0,0,0-.724,1.156,25.883,25.883,0,0,1-7.125,4.161c-5.035,1.827-10.666,1.4-15.891.061-.566-.1-1.132-.188-1.691-.287a11.463,11.463,0,0,1,3.536-6.21,26.262,26.262,0,0,1,13.518-7.364,23.747,23.747,0,0,1,15.325,2.06" transform="translate(-194.7 -637.523)" fill="#37674c"/>
    <path id="Tracé_412" data-name="Tracé 412" d="M317.086,966.7a15.162,15.162,0,0,1,3.2-2.305,48.152,48.152,0,0,1-4.833,4.475c-.14.112-.283.228-.43.338a7.029,7.029,0,0,1,.726-1.154,17.048,17.048,0,0,1,1.334-1.354" transform="translate(-181.255 -634.649)" fill="#37674c"/>
    <path id="Tracé_413" data-name="Tracé 413" d="M313.768,873.982a40.676,40.676,0,0,1,14.244-8.207c7.862-2.569,19.794-3.376,31.929,7.358a.808.808,0,0,1-1.071,1.211c-9.268-8.207-19.462-10.574-30.306-7.057a39.7,39.7,0,0,0-13.684,7.862.806.806,0,0,1-1.112-1.167" transform="translate(-183.052 -754.322)" fill="#12100f"/>
    <path id="Tracé_414" data-name="Tracé 414" d="M332.268,915.292c-.842,2.306-1.788,4.789-2.784,7.419-6.432,16.979-16.137,42.591-21.375,79.037H299.1c5.212-36.146,14.858-61.6,21.25-78.471,1.992-5.243,3.732-9.847,5-13.818a41.019,41.019,0,0,0,6.91,5.833" transform="translate(-200.261 -700.226)" fill="#c04d46"/>
    <path id="Tracé_415" data-name="Tracé 415" d="M324.115,906.643a40.349,40.349,0,0,0,3.565,4.782c-1.272,4.137-3.122,9.025-5.25,14.643-6.436,16.986-16.143,42.6-21.373,79.043h-4.949c7.777-53.95,25.193-92.493,28.007-98.469" transform="translate(-203.837 -703.588)" fill="#fff"/>
    <path id="Tracé_416" data-name="Tracé 416" d="M306.88,890.489c3.251-1.66,31.076-15.277,70.185-15.277a.805.805,0,0,0,0-1.61c-37.352,0-64.547,12.32-70.185,15.093.1-8.933,1.937-30.073,16.069-46.026a56.014,56.014,0,0,1,21.062-14.748c8.343-3.418,18-5.322,28.9-5.7,1.327-.05,2.725-.081,4.151-.081,1.924,0,3.81.044,5.625.136h.037c59.186,2.872,64.486,50.427,64.541,66.649-3.056-1.536-17.372-8.354-38.6-12.337a6.667,6.667,0,0,0,.8-2.551,6.767,6.767,0,0,0-3.874-6.829,14.979,14.979,0,0,0,6.713-9.036c1.384-4.914.252-9.27-3.108-11.971-6.129-4.929-13.3-3.036-16.119-1.99a8.1,8.1,0,0,0-.2-1.446c-.744-3.308-2.551-4.622-3.933-5.151-2.97-1.119-7.2.072-11.607,3.264a47.182,47.182,0,0,1-6.307,3.946,12.678,12.678,0,0,1-2.128.9l-.011,0c-20.956,3.69-19.186,21.645-19.169,21.829a.807.807,0,0,0,.8.72c.037,0,.081-.007.125-.011a171.987,171.987,0,0,1,51.962-.136l.6.092.29.044a1.093,1.093,0,0,0,.123.011.2.2,0,0,0,.061-.007,5.153,5.153,0,0,1,3.012,8.356l-.007.007a5.149,5.149,0,0,1-4.488,1.812.775.775,0,0,0-.314.031,175.206,175.206,0,0,0-24.822-1.788c-37.267,0-64.414,12.263-70.148,15.079-.007-.357-.024-.787-.037-1.279" transform="translate(-190.979 -804.464)" fill="#d2d9b4"/>
    <path id="Tracé_417" data-name="Tracé 417" d="M347.1,906.465a.362.362,0,0,0-.061.1c-.208.406-20.127,41.108-28.586,99.993h-7.013a6.487,6.487,0,0,0-5.109,2.5l-2.784,3.571c-14.1-.05-22.968-3.087-27.522-5.269.842-3.486,1.784-7,2.8-10.42l.007-.031c10.911-36.909,28.917-59.9,42.1-72.686,12.351-11.976,22.887-17.484,25.592-18.787.184.345.382.689.584,1.033" transform="translate(-227.812 -705.033)" fill="#37674c"/>
    <path id="Tracé_418" data-name="Tracé 418" d="M318.337,976.34a1.933,1.933,0,0,1,.32,1.426,1.976,1.976,0,0,1-.862.954,7.736,7.736,0,0,1-5.322.7c-.726-.105-1.463-.259-2.176-.406a24.6,24.6,0,0,0-3.861-.59c-.2-.007-.4-.013-.6-.013a29.447,29.447,0,0,0-3.326.259c-.781.092-1.586.184-2.367.228a4.558,4.558,0,0,1-2.064-.252,1.225,1.225,0,0,1-.8-1.088c.075-.553.849-1.009,1.459-1.323l2.249-1.31c2.882-1.112,6.142-2.365,9.442-2.409,3.512-.018,6.61,1.45,7.913,3.824" transform="translate(-202.449 -624.955)" fill="#fff"/>
    <path id="Tracé_419" data-name="Tracé 419" d="M314.164,964.185a3.136,3.136,0,0,1-1.549,2.527,9.455,9.455,0,0,1-3.431,1.211,33.706,33.706,0,0,1-8.722.546c-1.606-.1-2.582-.5-2.909-1.18a2.242,2.242,0,0,1,.2-1.818,12.391,12.391,0,0,1,1.518-2.238,7.414,7.414,0,0,1,4.1-2.687,19.309,19.309,0,0,1,3.418-.338,11.55,11.55,0,0,1,3.885.621c1.661.59,3.442,1.777,3.486,3.356" transform="translate(-202.26 -639.647)" fill="#fff"/>
    <path id="Tracé_420" data-name="Tracé 420" d="M331.906,988.807a5.251,5.251,0,0,1,.443,2.132c0,2.946-2.319,6-4.936,8.9-2.049,2.275-7.156,3.418-7.244,3.438a64.991,64.991,0,0,1-15.711,2.058,63.639,63.639,0,0,0,11.649-4.322,47.575,47.575,0,0,0-32.943-8.2c-1.255-4.008-.941-8.409,2.126-10.782a8.841,8.841,0,0,1,5.491-1.654,19.1,19.1,0,0,1,6.153,1.162c1.211.43,2.428.945,3.609,1.444a23.219,23.219,0,0,0,16.707,2.121c1.544-.246,3.141-.5,4.7-.6,3.622-.226,8.411.763,9.953,4.3" transform="translate(-220.112 -615.569)" fill="#fff"/>
    <path id="Tracé_421" data-name="Tracé 421" d="M312.241,874.6a180.442,180.442,0,0,0-.5,34.4,11.357,11.357,0,0,1-1.187-.112,6.037,6.037,0,0,0,.092-1.057,6.142,6.142,0,0,0-9.762-4.96,38.2,38.2,0,0,1-2.163-13.254,36.409,36.409,0,0,1,1.658-11.14,26.5,26.5,0,0,1,11.859-3.872" transform="translate(-200.716 -741.842)" fill="#edbbac"/>
    <path id="Tracé_422" data-name="Tracé 422" d="M308.359,892.207a4.418,4.418,0,0,1-.228,1.415l-.011.042a4.533,4.533,0,1,1-7.636-4.513l.013-.017a4.533,4.533,0,0,1,7.862,3.073" transform="translate(-200.037 -726.227)" fill="#c04d46"/>
    <path id="Tracé_423" data-name="Tracé 423" d="M335.871,963.3a.67.67,0,0,0,.075.208c-2.779,1.58-3.984,4.556-5.245,7.647a28.6,28.6,0,0,1-3.565,6.855A20.888,20.888,0,0,1,321,983.655a25.219,25.219,0,0,0-10.6,13.95,23.542,23.542,0,0,1-9.933,13.061,22.56,22.56,0,0,0-6.548,6.026,22.329,22.329,0,0,0-4.05,7.924,23.519,23.519,0,0,1-9.942,13.063,22.551,22.551,0,0,0-6.539,6.024.737.737,0,0,0-.105.184h-7.739a2.784,2.784,0,0,1-.314-.013c-.061,0-.136,0-.233-.017a1.067,1.067,0,0,1-.18-.024c-.092-.013-.184-.024-.276-.044-.042-.011-.086-.017-.154-.037-.14-.031-.27-.066-.406-.11-.055-.017-.116-.044-.208-.079-.068-.026-.123-.044-.2-.081a4.773,4.773,0,0,1-.594-.32.587.587,0,0,1-.1-.061,1.32,1.32,0,0,1-.147-.1c-.154-.112-.3-.235-.463-.371-.035-.042-.079-.079-.11-.116l-.184-.178c-.031-.037-.055-.075-.105-.13a5.012,5.012,0,0,1-.546-.774.975.975,0,0,1-.061-.11l-.007-.006-.474-1.329a4.713,4.713,0,0,1,.935-3.958l16.328-20.939a.73.73,0,0,0,.283-.355l31.3-40.138,12.326-15.8.007-.02.884-1.132.123-.158,2.975-3.813a4.632,4.632,0,0,1,1.1-1.033c1.095.2,7.224,1.729,8.834,10.648" transform="translate(-246.145 -648.673)" fill="#edbbac"/>
    <path id="Tracé_424" data-name="Tracé 424" d="M315.732,994.429a63.661,63.661,0,0,1-11.649,4.322c-1.033.017-2.084.024-3.161.006a24,24,0,0,1-7.627-1.02c-3.659-1.286-6.934-4.3-9.229-8.509a16.781,16.781,0,0,1-1.277-3,47.574,47.574,0,0,1,32.943,8.2" transform="translate(-219.736 -608.981)" fill="#37674c"/>
    <path id="Tracé_425" data-name="Tracé 425" d="M296.894,971.318a2.732,2.732,0,0,1-.338,2.091,5.754,5.754,0,0,1-3.966,2.5,6.162,6.162,0,0,1-4.4-.825c.086-.665.829-1.229,1.47-1.525a12.071,12.071,0,0,1,1.242-.467,10.976,10.976,0,0,0,1.838-.75c.38-.215.75-.474,1.106-.72,1.1-.755,1.814-1.2,2.49-.928a.963.963,0,0,1,.559.627" transform="translate(-213.29 -627.229)" fill="#fff"/>
    <path id="Tracé_426" data-name="Tracé 426" d="M299.215,997.556a23.873,23.873,0,0,0,7.63,1.02c1.075.02,2.126.013,3.159-.006a40.173,40.173,0,0,1-11.611,1.31c-8.079-.344-16.3-3.933-20.564-10.517l.068-.684a45.375,45.375,0,0,1,10.813-2.63,16.649,16.649,0,0,0,1.279,3c2.292,4.2,5.57,7.221,9.227,8.507" transform="translate(-225.657 -608.802)" fill="#37674c"/>
    <path id="Tracé_427" data-name="Tracé 427" d="M311.5,964.241,299.58,979.518c-2.249-.733-11.175-3.172-18.484,1.5-6.978-3.306-11.7-8.009-12.62-10.793a1.874,1.874,0,0,1-.044-1.378,7.662,7.662,0,0,1,2.073-2.268c2.027-1.691,4.333-3.609,3.514-11.539a6.011,6.011,0,0,1,1.63-5.3c2.815-2.687,8.38-2.527,10.574-2.343-.891,3.043-1.715,6.147-2.466,9.24a16.29,16.29,0,0,1-2.194-1.365.8.8,0,1,0-.989,1.266,18.1,18.1,0,0,0,2.735,1.678c.178.1.375.2.577.294,4.359,2.2,13.254,5.5,27.614,5.737" transform="translate(-237.014 -655.053)" fill="#d2d9b4"/>
    <path id="Tracé_428" data-name="Tracé 428" d="M307.991,963.169l-30.6,39.226c-6.221,1.52-10.857,1.231-14.987-.921a3.57,3.57,0,0,1-2-3.65,5.128,5.128,0,0,1,3.69-4.352c.362-.112.768-.217,1.193-.334,4.942-1.327,13.228-3.541,19.48-19.814a17.521,17.521,0,0,1,6.276-8.408c6.2-4.254,14.165-2.545,16.949-1.746" transform="translate(-246.483 -637.332)" fill="#edbbac"/>
    <path id="Tracé_429" data-name="Tracé 429" d="M265.208,1004.926l-3.714-10.3a4.764,4.764,0,0,0,.443.208c.1.05.2.088.252.112a3.023,3.023,0,0,0,.314.11,4.333,4.333,0,0,0,.5.143l.226.055c.118.017.235.044.351.055a1.215,1.215,0,0,0,.239.031c.118.013.241.024.32.024.136.013.27.02.406.02H598.771c.123,0,.246-.006.344-.013a5.156,5.156,0,0,0,.529-.048h.013a1.4,1.4,0,0,1,.191-.024c.073-.013.147-.033.2-.044.075-.006.143-.024.215-.037s.154-.044.2-.055l.017-.006c.105-.024.2-.055.272-.074a2.247,2.247,0,0,0,.311-.116l.031-.007a1.4,1.4,0,0,0,.29-.123l.031,0c.1-.044.191-.094.259-.125.048-.024.1-.055.154-.079l-3.714,10.3a8.343,8.343,0,0,1-7.831,5.5H273.039a8.348,8.348,0,0,1-7.831-5.508" transform="translate(-245.156 -598.558)" fill="#37674c"/>
    <path id="Tracé_430" data-name="Tracé 430" d="M558.72,1133.287l30.633,39.122c6.32,1.568,11.01,1.292,15.191-.88a3.575,3.575,0,0,0,1.992-3.65,5.133,5.133,0,0,0-3.683-4.352c-.369-.112-.768-.215-1.193-.333-4.949-1.327-13.235-3.541-19.493-19.811a17.63,17.63,0,0,0-6.024-8.237c-.055-.044-.116-.081-.171-.123-6.4-4.44-14.687-2.5-17.251-1.735m15.4-22.389c-4.216,2.1-13.45,5.589-28.481,5.693l12.019,15.345c1.832-.627,11.352-3.492,18.975,1.593l.037-.02c7.143-3.319,11.993-8.121,12.927-10.949a1.87,1.87,0,0,0,.044-1.375,7.568,7.568,0,0,0-2.078-2.268c-2.023-1.691-4.328-3.609-3.505-11.539a6.029,6.029,0,0,0-1.634-5.306c-2.847-2.722-8.534-2.521-10.666-2.336.884,3.038,1.722,6.153,2.483,9.294a17.982,17.982,0,0,0,2.292-1.426.806.806,0,0,1,1,1.268,21.24,21.24,0,0,1-3.367,2.01c-.02,0-.031.013-.044.018m-34.9.467c-1.077.191-7.237,1.709-8.854,10.648a.8.8,0,0,1-.134.331c2.556,1.606,3.848,4.526,5.188,7.555a33.07,33.07,0,0,0,3.712,6.825,20.8,20.8,0,0,0,6.149,5.649,25.331,25.331,0,0,1,10.6,13.948,20.966,20.966,0,0,0,3.793,7.428,20.694,20.694,0,0,0,6.14,5.636,25.254,25.254,0,0,1,10.6,13.95,23.557,23.557,0,0,0,9.933,13.064,22.408,22.408,0,0,1,6.546,6.024.741.741,0,0,1,.105.184h7.979c.088,0,.18-.007.272-.007.14-.013.27-.024.393-.037a.074.074,0,0,1,.037-.007h.018a.683.683,0,0,0,.092-.017.791.791,0,0,0,.173-.031l.134-.024c.061-.02.129-.037.191-.051.081-.024.136-.035.184-.055.1-.031.173-.055.248-.085a1.667,1.667,0,0,0,.233-.1c.092-.037.147-.062.208-.092a1.735,1.735,0,0,0,.215-.116l.215-.129.013-.007c.055-.037.086-.055.116-.079l.013-.006a.22.22,0,0,1,.031-.024.023.023,0,0,1,.024-.013c.013-.011.055-.042.075-.055s.042-.031.068-.048c.073-.062.127-.105.184-.156.011-.011.024-.018.031-.031a1.917,1.917,0,0,0,.191-.171,1.964,1.964,0,0,0,.189-.2l.044-.042c.055-.061.105-.118.154-.18l.007,0c.011-.013.018-.031.031-.037.031-.044.061-.086.1-.129.018-.031.042-.055.061-.086a1.616,1.616,0,0,0,.165-.241v0l.02-.02c.061-.1.116-.2.171-.307l.467-1.316a4.75,4.75,0,0,0-.935-3.964l-16.475-21.031L556.8,1133.46l-12.473-15.928-.018-.024-.627-.805-3.376-4.311a4.742,4.742,0,0,0-1.093-1.027m-22.45-142.527a4.536,4.536,0,0,0-4.532,4.53,4.425,4.425,0,0,0,.228,1.415.125.125,0,0,0,.013.044,4.5,4.5,0,0,0,1.652,2.231,4.535,4.535,0,0,0,5.989-6.743l-.013-.02a4.5,4.5,0,0,0-3.337-1.457m-6.142,4.53a6.147,6.147,0,0,1,9.769-4.96,38.457,38.457,0,0,0,2.163-13.254A35.967,35.967,0,0,0,520.5,943.86a26.848,26.848,0,0,0-11.965-3.749,181.193,181.193,0,0,1,.535,34.437,11.82,11.82,0,0,0,1.647-.123,6.025,6.025,0,0,1-.092-1.057m17.177,53.151c-14.274-13.831-26.083-19-26.2-19.043a.05.05,0,0,1-.031-.013c-.246.454-.5.91-.761,1.358a.624.624,0,0,1,.062.1c.2.406,20.132,41.108,28.579,99.993h7.026a6.456,6.456,0,0,1,5.1,2.483l2.913,3.738a.789.789,0,0,1,.454-.147c14.38,0,23.4-3.13,27.825-5.219-.856-3.536-1.8-7.057-2.8-10.451l-.011-.031c-10.918-36.964-28.948-59.974-42.159-72.767m-27.978-16.076a42.331,42.331,0,0,1-3.514,4.728c1.266,4.151,3.128,9.049,5.267,14.7,6.43,16.986,16.137,42.6,21.375,79.043h4.874c-7.777-53.967-25.2-92.493-28-98.469m-7.461,19.432c6.43,16.986,16.137,42.6,21.373,79.037h7.592c-5.219-36.146-14.864-61.6-21.257-78.471-2-5.262-3.745-9.891-5.024-13.875a40.27,40.27,0,0,1-5.772,5.065c.915,2.54,1.972,5.318,3.086,8.244m-10.778-1.088c6.191,17.109,15.516,42.915,20.858,80.125H512.1c-5.219-36.139-14.858-61.584-21.25-78.464-1.051-2.786-2.06-5.429-2.944-7.862a44.869,44.869,0,0,1-7.169,3.879Zm-5.434,59.083c1.432,6.823,2.681,13.906,3.7,21.042h9.663a293.451,293.451,0,0,0-6.221-31.333c-.123,3.99-2.521,7.45-7.143,10.291m-1.77-59.131c.945,3.947,5.612,23.747,7.838,38.752a298.32,298.32,0,0,1,8.926,41.421h9.67c-5.324-36.92-14.588-62.568-20.748-79.576l-.812-2.251c-1.573.621-3.209,1.173-4.874,1.654m.294,59.967a46.36,46.36,0,0,1-8.981,3.534c1.095,5.46,2.06,11.061,2.865,16.672h9.663c-.983-6.842-2.17-13.627-3.547-20.206M462.544,882.075c21.856,3.718,36.959,10.6,41.053,12.62.013-.3.024-.658.037-1.053a.686.686,0,0,1-.136-.062c-.16-.079-15.417-8.231-39.528-12.625a6.436,6.436,0,0,1-1.426,1.119M454.9,1094.607c.893,4.71,1.678,9.51,2.367,14.3h9.67c-.792-5.464-1.733-10.922-2.8-16.24-2.8.748-5.9,1.4-9.233,1.935m-10.554,14.3h11.293c-.678-4.721-1.459-9.442-2.33-14.053-3.093.467-6.333.836-9.659,1.1Zm-1.869-156.788a23.684,23.684,0,0,0,47.114-3.461c0-.481-.02-.965-.044-1.413v-.026a23.682,23.682,0,1,0-47.07,4.9m-.43,143.953c-2.589.178-5.184.29-7.445.307v12.528h8.139Zm-8.6-272.618c1.612,0,3.2.024,4.747.085-.45-1.29-2.073-2.251-4-2.251A4.135,4.135,0,0,0,430.2,823.5c1.053-.031,2.141-.042,3.24-.042M429.9,1035.667a4.948,4.948,0,1,0,8.544,1.691,4.854,4.854,0,0,0-.908-1.685,20.272,20.272,0,0,1-3.168.263c-.307,0-.526-.007-.632-.011h-.013c-.11,0-.325.011-.645.011a19.842,19.842,0,0,1-3.179-.27m-5.4,73.245h8.483v-12.528c-2.336-.011-5.052-.129-7.794-.32Zm-16.856-239.44a173.164,173.164,0,0,1,51.453-.018c3.308-.5,6.75-4.256,8.022-8.8.573-2.012,1.457-7.046-2.558-10.273-6.147-4.949-13.524-2.214-15.251-1.457-.781,4.025-4.458,6.46-4.624,6.572a.813.813,0,0,1-.434.127.792.792,0,0,1-.678-.369.8.8,0,0,1,.235-1.112c.037-.024,3.435-2.286,3.964-5.772v-.026a.85.85,0,0,1,.024-.164,6.2,6.2,0,0,0-.11-2.135c-.48-2.095-1.47-3.442-2.944-3.995-2.411-.917-6.184.228-10.089,3.056-5.908,4.278-8.845,5.076-8.974,5.107-.02.007-.037.007-.055.013h-.007a.264.264,0,0,1-.068.007c-17.139,3.023-18,15.792-17.907,19.241m7.943,225.6c-.855,4.574-1.623,9.227-2.288,13.838h9.6l.682-12.971c-2.716-.22-5.4-.509-7.99-.867m-1.586-.232c-3.328-.5-6.436-1.112-9.271-1.814-1.04,5.195-1.95,10.53-2.724,15.884h9.67c.665-4.69,1.452-9.417,2.325-14.07m-10.832-2.214a52.5,52.5,0,0,1-9.062-3.24c-1.31,6.419-2.453,12.978-3.4,19.524h9.674c.788-5.489,1.722-10.966,2.786-16.284m-17.372-14.68c.294,3.714,3.036,6.921,8.139,9.56l.061.024a49.773,49.773,0,0,0,10.271,3.725c.013.007.026.007.037.013a102.921,102.921,0,0,0,10.747,2.1l.037.007c3.03.43,6.184.774,9.38,1.02h.024c3.258.252,6.542.382,9.216.382h.079c2.637,0,5.815-.129,8.95-.368h.02c3.762-.272,7.419-.689,10.881-1.231a1.061,1.061,0,0,1,.154-.048.659.659,0,0,1,.226-.007,96.743,96.743,0,0,0,10.174-2.139.774.774,0,0,1,.358-.191.924.924,0,0,1,.338-.007,44.361,44.361,0,0,0,9.584-3.806.805.805,0,0,1,.559-.461,1.156,1.156,0,0,1,.246-.011c4.512-2.773,6.658-6.112,6.382-9.942-.18-2.371-.518-5.311-1.022-8.711q-.3-1.04-.608-2.051a.792.792,0,0,1,.171-.763c-2.323-14.476-6.467-32.1-7.382-35.889a66.226,66.226,0,0,1-16.358,2.005,59.134,59.134,0,0,1-7.764-.467,23.976,23.976,0,0,1-9.437,4.635,6.175,6.175,0,0,1,.72,1.555,6.568,6.568,0,0,1-4.335,8.2,6.354,6.354,0,0,1-1.93.29,6.559,6.559,0,0,1-5.55-10.058,23.925,23.925,0,0,1-9.424-4.622,58.867,58.867,0,0,1-7.757.467,66.345,66.345,0,0,1-16.372-2.005c-1.136,4.8-7.764,32.956-8.821,47.415a7.741,7.741,0,0,0,0,1.316c0,.024.007.037.007.061m-7.913-129.286A23.684,23.684,0,0,0,425,952.124a24.2,24.2,0,0,0,.246-3.461,23.68,23.68,0,0,0-47.316-1.444v.031c-.026.454-.044.932-.044,1.413m6.947,132.206c-2.227,9.13-4.039,18.548-5.416,28.044h9.67c.976-6.8,2.163-13.616,3.541-20.274-4.045-2.2-6.658-4.8-7.794-7.77m4.05-51.583c-6.16,17.016-15.428,42.67-20.759,79.627h9.67a304.733,304.733,0,0,1,6.116-31.069.729.729,0,0,1,.252-.393,9.455,9.455,0,0,1,.024-1c1.071-14.63,7.759-43.038,8.878-47.715-1.2-.344-2.4-.739-3.56-1.163Zm-5.717-117.593c-7.32,11.491-15.281,15.591-20.845,16.979-.665,3.22-1.218,6.59-1.654,10.032l15.755,7.268a25.289,25.289,0,0,1,50.433,2.692c0,.706-.031,1.415-.085,2.108a12.945,12.945,0,0,1,6.669-1.733h.59a12.89,12.89,0,0,1,6.671,1.733c-.055-.7-.086-1.4-.086-2.108a25.289,25.289,0,0,1,50.433-2.692l15.7-7.241c-.443-3.468-1-6.849-1.654-10.065-5.522-1.389-13.421-5.458-20.693-16.788a61.561,61.561,0,0,1-12.092,3.339c1.18.257,2.292.566,3.332.9a40.7,40.7,0,0,1,14.244,8.213.8.8,0,0,1-.553,1.382.763.763,0,0,1-.553-.222,39.85,39.85,0,0,0-13.691-7.856,30.142,30.142,0,0,0-10.918-1.549c-6.8.338-13.3,3.209-19.388,8.6a.8.8,0,1,1-1.064-1.2,35.727,35.727,0,0,1,13.167-7.667,64.082,64.082,0,0,1-14.187-2.924,61.745,61.745,0,0,1-17.225-8.608c-7.581,6.811-18.339,8.626-27.645,8.626a84.383,84.383,0,0,1-14.595-1.34,1.111,1.111,0,0,1-.068.123m50.273-33.553c-39.109,0-66.932,13.616-70.183,15.277.011.492.031.922.035,1.279,5.737-2.817,32.883-15.079,70.148-15.079a175.247,175.247,0,0,1,24.824,1.788.771.771,0,0,1,.314-.031,5.154,5.154,0,0,0,4.488-1.814l0,0a5.151,5.151,0,0,0-3.012-8.356.19.19,0,0,1-.061.007,1.179,1.179,0,0,1-.123-.011l-.29-.044-.6-.092a172,172,0,0,0-51.964.136c-.044,0-.086.011-.123.011a.807.807,0,0,1-.8-.72c-.02-.184-1.79-18.14,19.166-21.829l.013,0a12.725,12.725,0,0,0,2.126-.9,47.159,47.159,0,0,0,6.309-3.946c4.407-3.192,8.637-4.383,11.6-3.264,1.384.529,3.192,1.843,3.936,5.151a8.27,8.27,0,0,1,.2,1.443c2.817-1.044,9.99-2.937,16.119,1.992,3.363,2.7,4.495,7.057,3.111,11.969a14.977,14.977,0,0,1-6.713,9.038,6.769,6.769,0,0,1,3.872,6.829,6.627,6.627,0,0,1-.8,2.551c21.233,3.984,35.551,10.8,38.6,12.337-.055-16.222-5.353-63.78-64.541-66.649h-.037c-1.812-.092-3.7-.136-5.625-.136-1.426,0-2.821.031-4.148.081-10.907.379-20.564,2.286-28.906,5.7a56.006,56.006,0,0,0-21.06,14.748c-14.134,15.953-15.972,37.094-16.069,46.026,5.636-2.773,32.833-15.093,70.183-15.093a.805.805,0,1,1,0,1.61m-76.608,230.773H366.5c5.355-37.247,14.687-63.06,20.877-80.173L388,1027a45.725,45.725,0,0,1-7.255-3.639c-.812,2.207-1.715,4.585-2.657,7.088-6.4,16.874-16.038,42.319-21.257,78.464m3.639-168.524a166.984,166.984,0,0,0-1.068,19.278c0,5.157.215,10.4.645,15.608,0,.024.007.037.007.062.43,5.157,1.068,10.229,1.893,15.093a57.494,57.494,0,0,0,2.4,9.472,47.094,47.094,0,0,0,2.777,6.46.358.358,0,0,0,.031.057c.388.744.805,1.487,1.242,2.218a41.354,41.354,0,0,0,4.273,5.835c.011,0,.024.024.031.035a39.925,39.925,0,0,0,8.064,6.961.077.077,0,0,1,.037.024,44.711,44.711,0,0,0,8.509,4.3,48.549,48.549,0,0,0,4.888,1.586.1.1,0,0,1,.042.013,66.8,66.8,0,0,0,22.869,1.856,27.289,27.289,0,0,1-3.585-4.24.807.807,0,1,1,1.327-.917,25.149,25.149,0,0,0,4.635,5.133h.007a22.325,22.325,0,0,0,10.242,4.782,17.064,17.064,0,0,0,3.927.307.5.5,0,0,1,.116,0h.007a17,17,0,0,0,3.885-.294c.02-.006.031-.013.044-.006a22.343,22.343,0,0,0,10.236-4.789h.007a25.39,25.39,0,0,0,4.646-5.133.8.8,0,0,1,1.112-.208.81.81,0,0,1,.215,1.125,27.686,27.686,0,0,1-3.589,4.24A66.679,66.679,0,0,0,473.2,1027.4c.011-.006.031-.006.042-.013l.037-.006a50.973,50.973,0,0,0,6.123-2.084l.024-.011c.013-.006.02-.013.033-.013a43.852,43.852,0,0,0,8.36-4.574.089.089,0,0,1,.031-.024,39.22,39.22,0,0,0,6.89-6.154l.024-.024a.671.671,0,0,1,.055-.062,40.3,40.3,0,0,0,4.236-5.8c.518-.847,1-1.733,1.457-2.617a47.04,47.04,0,0,0,2.619-6.153v-.02a58.326,58.326,0,0,0,2.38-9.411c.823-4.874,1.457-9.973,1.88-15.13,0-.024.007-.035.007-.061a179.738,179.738,0,0,0-.443-34.825l-15.779,7.279c.018.314.024.641.024.972a25.294,25.294,0,0,1-50.225,4.273.773.773,0,0,1-.11-.088,10.545,10.545,0,0,0-6.831-2.2h-.59a10.518,10.518,0,0,0-6.836,2.214.567.567,0,0,1-.11.079,25.291,25.291,0,0,1-50.218-4.278c0-.331.007-.658.024-.972Zm-9.325,37.519a4.531,4.531,0,0,0,4.291-3.08l.013-.044a4.392,4.392,0,0,0,.226-1.413,4.533,4.533,0,0,0-7.862-3.075l-.011.02a4.492,4.492,0,0,0-1.193,3.056,4.543,4.543,0,0,0,4.537,4.537m16.3,52.534c-6.395,16.874-16.038,42.325-21.253,78.471h9.007c5.236-36.448,14.943-62.057,21.373-79.037,1-2.63,1.944-5.113,2.786-7.419a40.834,40.834,0,0,1-6.91-5.835c-1.272,3.973-3.012,8.577-5,13.82m-22.876,78.471c5.232-36.448,14.939-62.057,21.375-79.043,2.128-5.618,3.977-10.506,5.25-14.643a40.338,40.338,0,0,1-3.565-4.782c-2.817,5.976-20.232,44.519-28.007,98.469Zm.787-153.758a38.2,38.2,0,0,0,2.163,13.254,6.144,6.144,0,0,1,9.764,4.962,6.058,6.058,0,0,1-.092,1.058,10.671,10.671,0,0,0,1.185.11,180.621,180.621,0,0,1,.5-34.4,26.474,26.474,0,0,0-11.857,3.874,36.383,36.383,0,0,0-1.661,11.137m-2.95-17.188c-4.942,2.477-10.986,7.845-11.986,19.339-1.654,19.07,12.846,37.646,26.427,40.893,0,0,1.235.222,2.7.48.941.164,1.972.342,2.852.491a61.393,61.393,0,0,1-2.047-8.472c-.8-4.684-1.408-9.571-1.845-14.544a12.674,12.674,0,0,1-1.812-.173,6.03,6.03,0,0,1-1.974,2.38,6.094,6.094,0,0,1-3.578,1.156,6.147,6.147,0,0,1-4.874-9.891,38.583,38.583,0,0,1-2.521-14.472,39.1,39.1,0,0,1,1.106-9.4,13.425,13.425,0,0,0-2.371,3.049.825.825,0,0,1-.7.41.863.863,0,0,1-.4-.11.8.8,0,0,1-.3-1.095,15.771,15.771,0,0,1,4.776-5.158c5.208-3.633,11.668-4.253,13.217-4.346.412-3.247.921-6.419,1.525-9.475a18.349,18.349,0,0,1-3.209.29,10.44,10.44,0,0,1-1.4-.079.8.8,0,1,1,.235-1.586,10.018,10.018,0,0,0,1.149.055,18.486,18.486,0,0,0,4.05-.48l.024-.007a.54.54,0,0,0,.057-.011l.018-.007c5.219-1.2,12.866-4.955,20.015-15.963-1.941-.395-3.073-.689-3.128-.709a.805.805,0,1,1,.419-1.555c.011.007,1.481.395,3.885.862h.035c8.608,1.634,29.926,4.21,42-7.07l.147-.147a.579.579,0,0,1,.068-.061,24.589,24.589,0,0,0,1.893-2.036.805.805,0,0,1,1.235,1.033c-.454.546-.941,1.081-1.443,1.6a62.653,62.653,0,0,0,16.6,8.218A61.292,61.292,0,0,0,464.4,914.4a59.639,59.639,0,0,0,20.094-4.291.267.267,0,0,1,.075-.024,69.216,69.216,0,0,0,6.491-3.025.807.807,0,0,1,.757,1.426c-1.937,1.02-3.916,1.955-5.9,2.784,7.132,10.986,14.786,14.737,19.987,15.935.024.007.042.007.061.013a16.055,16.055,0,0,0,5.25.437.8.8,0,1,1,.239,1.586,10.448,10.448,0,0,1-1.4.079,18.5,18.5,0,0,1-3.245-.294c.608,3.036,1.119,6.208,1.525,9.459h0c.375.02,7.52.3,13.279,4.188l.013,0A15.85,15.85,0,0,1,526.668,948a.806.806,0,0,1-.3,1.1.847.847,0,0,1-.395.11.811.811,0,0,1-.7-.412,13.7,13.7,0,0,0-2.558-3.221,35.324,35.324,0,0,1,1.446,9.571,38.532,38.532,0,0,1-2.521,14.478,6.14,6.14,0,1,1-10.427,6.348,14.113,14.113,0,0,1-2.281.18c-.423,4.96-1.044,9.848-1.836,14.531a59.988,59.988,0,0,1-2.049,8.49c2.172-.362,5.344-.976,5.379-.983,13.55-3.247,28.051-21.823,26.392-40.893-1.046-12.054-7.831-17.286-12.118-19.408-.164-.086-.331-.16-.491-.233l-.191-.086a16.151,16.151,0,0,0-3.534-1.193.808.808,0,0,1,.27-1.593,17.782,17.782,0,0,1,3.653,1.187c-.676-24.8-18.8-38.324-20.042-39.208a.9.9,0,0,1-.417-.1c-.178-.092-17.964-9.584-45.546-13.623l-.031-.007a173.148,173.148,0,0,0-24.929-1.819c-39.993,0-68.18,14.244-70.363,15.373a.8.8,0,0,1-.134.123c-.2.13-19.421,13.715-20.1,39.265a18.486,18.486,0,0,1,3.646-1.193.808.808,0,0,1,.276,1.593,11.215,11.215,0,0,0-1.174.294,19.233,19.233,0,0,0-2.878,1.132l-.208.105c-.037.018-.061.035-.092.048M338.7,1110.523h-7.713a1.444,1.444,0,0,0-.167.006c2.63,1.2,6.553,4.131,7.849,11.03a11.36,11.36,0,0,1,3.547-.511.52.52,0,0,1,.105.013l.105.011c8.145.007,10.929.805,13.627,1.579s5.276,1.514,13.23,1.514a72.924,72.924,0,0,0,15.977-1.531,85.741,85.741,0,0,1,32.581,0,84.142,84.142,0,0,0,31.96,0,85.742,85.742,0,0,1,32.581,0,72.852,72.852,0,0,0,15.979,1.531c7.941,0,10.24-.733,12.669-1.507s4.967-1.586,13.169-1.586l1.057-.024a9.919,9.919,0,0,1,3.521.577c1.286-6.945,5.219-9.885,7.862-11.1a1.426,1.426,0,0,0-.165-.006H338.7Zm-43.128-.81c4.554,2.181,13.426,5.219,27.52,5.267l2.786-3.571a6.488,6.488,0,0,1,5.109-2.5H338c8.459-58.885,28.376-99.587,28.586-99.993a.277.277,0,0,1,.061-.1q-.306-.517-.586-1.031c-2.7,1.3-13.241,6.809-25.592,18.785-13.18,12.787-31.186,35.779-42.1,72.688l0,.031c-1.016,3.424-1.957,6.934-2.8,10.42m-4.655-.842a.8.8,0,0,1,.989-1.268,16.1,16.1,0,0,0,2.2,1.364c.75-3.091,1.573-6.2,2.466-9.238-2.2-.184-7.759-.345-10.574,2.341a6.009,6.009,0,0,0-1.63,5.306c.818,7.93-1.487,9.848-3.517,11.539a7.634,7.634,0,0,0-2.071,2.268,1.879,1.879,0,0,0,.042,1.375c.924,2.786,5.644,7.49,12.62,10.8,7.309-4.673,16.235-2.231,18.486-1.5l11.921-15.275c-14.362-.241-23.258-3.536-27.614-5.736-.2-.092-.4-.2-.579-.294a18.607,18.607,0,0,1-2.736-1.678m-8.882,88.9a20.406,20.406,0,0,0-5.5,4.837H590.946a20.458,20.458,0,0,0-5.5-4.839,25.212,25.212,0,0,1-10.6-13.941,23.623,23.623,0,0,0-9.929-13.07,25.221,25.221,0,0,1-10.6-13.948,23.635,23.635,0,0,0-9.933-13.063,22.478,22.478,0,0,1-6.555-6.03,34.363,34.363,0,0,1-3.9-7.143c-1.647-3.72-2.926-6.6-6.112-7.55a9.306,9.306,0,0,0-2.545-.331l-1.057.02c-7.954,0-10.247.737-12.682,1.511s-4.973,1.586-13.167,1.586a74.839,74.839,0,0,1-16.29-1.562,83.947,83.947,0,0,0-31.967,0,85.719,85.719,0,0,1-32.576,0,83.912,83.912,0,0,0-31.96,0,74.818,74.818,0,0,1-16.284,1.562c-8.183,0-10.979-.8-13.684-1.579s-5.274-1.518-13.224-1.518a.639.639,0,0,1-.11-.007l-.1-.013a8.84,8.84,0,0,0-3.8.744c-2.558,1.211-3.615,3.813-4.936,7.05a30.435,30.435,0,0,1-3.775,7.23,22.532,22.532,0,0,1-6.553,6.03,23.609,23.609,0,0,0-9.933,13.063,25.221,25.221,0,0,1-10.6,13.948,23.622,23.622,0,0,0-9.929,13.07,25.253,25.253,0,0,1-10.6,13.943m-18.337,5.693,3.712,10.3a8.349,8.349,0,0,0,7.832,5.508H592.483a8.345,8.345,0,0,0,7.831-5.5l3.712-10.3c-.048.026-.1.057-.154.081-.068.031-.16.079-.259.123a.048.048,0,0,1-.031.007,1.732,1.732,0,0,1-.287.123l-.031.007a3.052,3.052,0,0,1-.314.116c-.068.017-.167.048-.272.072l-.018.006c-.048.013-.123.031-.2.055s-.143.031-.215.038c-.05.013-.125.031-.2.044a1.434,1.434,0,0,0-.191.024h-.013a5.033,5.033,0,0,1-.529.05c-.1,0-.219.011-.344.011H266.75c-.134,0-.27-.007-.406-.017-.079,0-.2-.013-.318-.024a1.493,1.493,0,0,1-.241-.031c-.116-.013-.233-.037-.349-.057-.075-.018-.154-.035-.228-.055a4.356,4.356,0,0,1-.5-.14c-.123-.037-.222-.075-.314-.112-.055-.024-.154-.062-.252-.11-.147-.062-.294-.129-.441-.208m-.419-31.931c4.131,2.152,8.766,2.441,14.987.923l30.6-39.228c-2.784-.8-10.745-2.507-16.949,1.746a17.516,17.516,0,0,0-6.276,8.411c-6.252,16.271-14.54,18.484-19.482,19.811-.423.119-.829.222-1.191.333a5.131,5.131,0,0,0-3.69,4.352,3.57,3.57,0,0,0,2,3.65m.9,30.35a4.638,4.638,0,0,0,.6.32,2.159,2.159,0,0,0,.2.079c.092.037.154.064.211.081a3.963,3.963,0,0,0,.406.11c.066.02.11.026.154.037.092.02.184.031.276.044a1.048,1.048,0,0,0,.178.024c.1.013.173.013.235.017a2.729,2.729,0,0,0,.311.013h7.742a.81.81,0,0,1,.1-.184,22.519,22.519,0,0,1,6.542-6.024,23.53,23.53,0,0,0,9.94-13.064,25.263,25.263,0,0,1,10.6-13.95,20.75,20.75,0,0,0,6.142-5.636,20.975,20.975,0,0,0,3.793-7.426,25.193,25.193,0,0,1,10.6-13.95,20.943,20.943,0,0,0,6.134-5.649,28.534,28.534,0,0,0,3.567-6.855c1.259-3.091,2.463-6.068,5.243-7.647a.73.73,0,0,1-.075-.208c-1.61-8.92-7.739-10.451-8.832-10.648a4.593,4.593,0,0,0-1.1,1.033l-2.975,3.813-.123.158-.886,1.132-.007.018-12.324,15.8-31.3,40.138a.738.738,0,0,1-.281.355l-16.328,20.939a4.706,4.706,0,0,0-.935,3.957l.472,1.329.007,0a.856.856,0,0,0,.061.112,5.005,5.005,0,0,0,.548.774c.048.055.072.092.1.13l.184.177c.031.037.075.075.112.116.16.136.307.259.461.368a1.44,1.44,0,0,0,.147.1.705.705,0,0,0,.1.061m-4.506-34.16a6.768,6.768,0,0,1,4.833-5.741c.379-.112.792-.215,1.235-.338,4.646-1.248,12.443-3.332,18.4-18.831a19.65,19.65,0,0,1,5.809-8.385c-7.007-3.51-11.642-8.288-12.658-11.361a3.292,3.292,0,0,1,.061-2.65,9.2,9.2,0,0,1,2.466-2.74c1.887-1.568,3.67-3.056,2.94-10.133a7.627,7.627,0,0,1,2.126-6.632c3.462-3.315,9.99-2.97,12.142-2.755,11.041-36.909,29.126-59.949,42.384-72.8,12.381-11.986,23.005-17.587,25.905-19a48.646,48.646,0,0,1-2.33-5.471c-2.163-.338-6.276-1.081-6.467-1.112-14.248-3.411-29.426-22.764-27.7-42.608,1.081-12.416,7.985-18.041,12.394-20.4a.189.189,0,0,1-.007-.061c.331-25.1,18.023-39.226,20.526-41.095v-.006c-.031-.5-.075-1.437-.081-2.729-.055-8.292,1.292-31.2,16.457-48.343,11.526-13.02,28.481-20.072,50.409-20.976.423-2.187,2.8-3.878,5.666-3.878,2.889,0,5.287,1.722,5.675,3.946,26.3,1.432,45.109,11.767,55.928,30.725,8.735,15.332,9.529,32.052,9.461,38.532-.013,1.112-.05,1.955-.075,2.49a.058.058,0,0,1,.037.018c.2.143,20.472,14.434,20.82,41.316a.342.342,0,0,1,0,.068c4.622,2.459,11.328,8.121,12.392,20.39,1.722,19.844-13.45,39.2-27.656,42.6-.211.044-4.225.825-6.309,1.152a46.449,46.449,0,0,1-2.15,5.114c1.007.454,12.7,5.859,26.618,19.333,13.259,12.855,31.339,35.889,42.374,72.8,2.047-.215,8.722-.614,12.239,2.749a7.6,7.6,0,0,1,2.121,6.632c-.733,7.077,1.057,8.564,2.937,10.13a9.323,9.323,0,0,1,2.466,2.742,3.256,3.256,0,0,1,.061,2.65c-1.033,3.124-5.815,8.022-13.044,11.552a19.747,19.747,0,0,1,5.594,8.194c5.963,15.5,13.752,17.582,18.4,18.828.443.123.856.228,1.235.34a6.768,6.768,0,0,1,4.833,5.741,5.191,5.191,0,0,1-2.858,5.243,18.338,18.338,0,0,1-8.674,2.053,29.656,29.656,0,0,1-5.686-.6l15.152,19.34a6.3,6.3,0,0,1,1.347,4.572.793.793,0,0,1-.013.494l-.11.318a6.454,6.454,0,0,1-.559,1.538l-4.912,13.629a9.946,9.946,0,0,1-9.343,6.566H275.239a9.956,9.956,0,0,1-9.343-6.566l-4.912-13.629-.007-.024a4.374,4.374,0,0,1-.29-.627V1200l-.011-.031-.013-.024-.165-.535-.191-.614a.766.766,0,0,1-.013-.443,6.343,6.343,0,0,1,1.353-4.594l15.066-19.313a29.211,29.211,0,0,1-5.508.57,18.357,18.357,0,0,1-8.674-2.053,5.191,5.191,0,0,1-2.858-5.243" transform="translate(-247.358 -807.39)" fill="#12100f"/>
    <path id="Tracé_431" data-name="Tracé 431" d="M349.525,908.389c-1.358.491-2.711.935-4.052,1.316a2.4,2.4,0,0,0,.092-1.7q1.7-.506,3.413-1.123a60.349,60.349,0,0,0,10.148-4.74,29.623,29.623,0,0,1-4.315-9.9.8.8,0,0,1,1.562-.38c3.251,13.265,12.412,16.389,12.5,16.413a.806.806,0,0,1-.246,1.573.855.855,0,0,1-.252-.037,19.375,19.375,0,0,1-8.294-6.368c-.318.191-1.468.893-3.288,1.814a65.355,65.355,0,0,1-7.272,3.135" transform="translate(-144.91 -721.969)" fill="#12100f"/>
    <path id="Tracé_432" data-name="Tracé 432" d="M342.572,938.888a6.56,6.56,0,1,1,6.263-8.5,6.333,6.333,0,0,1,.29,1.924,6.55,6.55,0,0,1-6.553,6.572m-4.741-5.1a4.943,4.943,0,1,0,3.277-6.2,4.958,4.958,0,0,0-3.277,6.2" transform="translate(-156.209 -680.76)" fill="#12100f"/>
    <path id="Tracé_433" data-name="Tracé 433" d="M336.007,941.508a6.559,6.559,0,1,1,6.559,6.559,6.564,6.564,0,0,1-6.559-6.559m6.559-4.949a4.949,4.949,0,1,0,4.956,4.949,4.954,4.954,0,0,0-4.956-4.949" transform="translate(-156.21 -669.799)" fill="#12100f"/>
  </g>
</svg>
